<svg xmlns="http://www.w3.org/2000/svg" xmlns:xlink="http://www.w3.org/1999/xlink" x="0px" y="0px" viewBox="175 584 285 285">
<style type="text/css">
	.st5{fill:#FFFFFF;}
	.st6{fill:#FAFAFA;}
	.st7{fill:#F5EAD9;}
	.st8{fill:#B27342;}
	.st10{fill:#E7BF7D;}
	.st20{fill:#F48264;}
	.st21{fill:#B75328;}
</style>
<g >
				<g>
					<g>
						<path class="st7" d="M240.9,723.2c-0.2,3.7-2.6,14.7-3,17.2c-3.2,19.6-28,86.4-17.1,102.2c7.1,10.3,21.9,13.5,34.9,9.3        c14.3-4.7,31.8-38.5,43.1-52.8c2.4-3,19.2-21,27.1-24.6c3.6-1.6,10.9-6.8,15-8.5c0.5-4.5,0.8-8.7,1.2-13        c-30.3-12.1-60.1-24.9-91.2-35.3C247.6,719.6,244.3,721.1,240.9,723.2z"/>
					</g>
				</g>
				<g>
					<g>
						<g>
							<path d="M237.9,740.4c-1.2,7.7-3.3,15.2-5.2,22.7c-3.9,15-7.9,30-10.8,45.2c-1.6,9.4-3.3,18.9-1.7,28.3c0,0,0.3,1.3,0.3,1.3         l0.2,0.6c0.3,1,0.8,2,1.3,2.9c6.6,9.6,19.9,12.2,30.7,9.4c16.2-3.2,34.5-42.1,46.4-55c6.7-7.2,13.5-14.2,21.5-20.1         c3.2-2.4,6.8-3.7,10.2-5.9c3.3-2,6.8-4.1,10.3-5.7c15.4-7.5,28.9-19.3,38.3-33.6c9.5-14.5,14.7-31.8,14.2-49.2         c3.1,33.6-17.1,66.3-45.8,83c-1.9,1-6,3.3-7.8,4.1c-5,2.7-9.8,6.2-15,8.7c-4,2.5-7.4,5.7-10.9,9         c-5.4,5.3-11.1,10.6-15.6,16.7c-9,12.6-16.7,26.3-26.7,38.3c-4.8,5.7-10.5,11.8-18.1,13.5c-12.2,3-27.2-0.1-34.5-11.2         c-0.8-1.3-1.5-3-1.8-4.5c-2.2-10.2,0.1-21,2-31C224,784.9,232.5,763.1,237.9,740.4L237.9,740.4z"/>
						</g>
					</g>
					<g>
						<g>
							<path d="M392.6,672.8c-6.7-22.5-16.6-39.4-32.8-56.4C380.1,626.9,393.6,650.1,392.6,672.8L392.6,672.8z"/>
						</g>
					</g>
				</g>
				<g>
					<g>
						<path d="M241.4,725.3c-0.2,3.3-2.3,13.3-2.7,15.6c-2.9,17.8-25.4,78.2-15.4,92.6c6.5,9.3,19.9,12.2,31.6,8.4        c12.9-4.2,28.8-34.8,39-47.8c2.1-2.7,17.4-19,24.5-22.3c3.3-1.5,9.9-6.2,13.5-7.7c0.5-4.1,0.7-7.8,1.1-11.8        c-27.5-11-54.4-22.6-82.5-31.9C247.4,722,244.5,723.4,241.4,725.3z"/>
					</g>
				</g>
				<g>
					<g>
						<path class="st20" d="M289.2,787.1c-1.7,2.2-3.4,4.5-5.2,7c0,0-9.3,12.9-16.5,25.2c-2.8,4.7-5.1,9.1-7.1,13.3        c-9,18.2-12.3,30.3-20.4,32.5c-4.6,1.2-9.1,0.5-9.1,0.5s-5.2-0.9-9.3-4.2c-6.1-4.9-6.4-18.1-4.5-32.6        c2.2-17.5,7.5-37,9.4-46.5c0.5-2.2,1.6-9.2,1.8-11.9c2-1.8,4.2-2.8,6.3-4.2C253.3,771.7,270.6,780.9,289.2,787.1z"/>
					</g>
					<g>
						<path class="st21" d="M289.2,787.1c-1.7,2.2-3.4,4.5-5.2,7c0,0-9.3,12.9-16.5,25.2c-2.8,4.7-5.1,9.1-7.1,13.3        c-2.8,0.9-5.6,1.8-8.4,2.6c-6.8,2-13.5,3.9-19.9,5.6c-3.9-3.7-8.7-7.6-14.2-11.5c-0.3-0.2-0.6-0.4-0.8-0.6        c2.2-17.5,7.5-37,9.4-46.5c0.5-2.2,1.6-9.2,1.8-11.9c2-1.8,4.2-2.8,6.3-4.2C253.3,771.7,270.6,780.9,289.2,787.1z"/>
					</g>
				</g>
				<g>
					<path class="st5" d="M233.8,866.4c-8.1,1.3-15.6-4.5-17.8-12.1c-2.1-7.2-1.9-14.7-0.5-21.9c1.1-4.7,3-9.3,6-13.1       c-0.4,7.1-0.8,13.5-0.4,20.3c0.1,2,0.2,4.8,0.4,6.7C222.1,855.7,224.9,862.2,233.8,866.4L233.8,866.4z"/>
				</g>
				<g>
					<g>
						<g>
							<path d="M267.5,819.2c-6,11.6-10.4,23.6-15.9,35.5c-2.2,4.5-5.1,9.7-10.1,11.7c-6.8,2.4-14.4,1.2-20.3-2.9         c-14.2-9.8-3.7-48.2-0.1-62.6c1.7-6.3,3.5-12.5,5.2-18.7c-0.9,6.4-2.2,12.8-3.3,19.1c-2,12.5-10.8,51.2,0.5,58.9         c4.2,3,9.6,4.1,14.7,3.2c5.4-0.7,8.1-5.7,10.7-10.2c1.5-2.8,2.9-5.7,4.4-8.6C257.5,836,262.1,827.3,267.5,819.2L267.5,819.2z         "/>
						</g>
					</g>
					<g>
						<g>
							<path d="M231.6,844.7c-0.8-14.5,2.8-29.3,10.1-41.8c-1.4,6.1-3.7,14.7-5.1,20.9C235.1,830,233.2,838.6,231.6,844.7         L231.6,844.7z"/>
						</g>
					</g>
				</g>
				<g>
					<path class="st8" d="M330,607.3c-3.8-4.5-10.8-11.6-21.3-14.7c-1.8-0.5-4-1.2-7-1.4c-10.1-0.6-23.1,9.8-32,14.9       c-19.4,11.2-18.1,10.5-20.3,13.3c-14.7,18.4-1.9,58.8,1.6,69.1"/>
					<path d="M247.6,689.6c-6.6-19.3-15.4-54.5-1-72.4l0.4-0.5c2.2-2.8,2.8-3.2,20.9-13.6c2-1.1,4.2-2.5,6.5-4       c8.7-5.6,18.6-11.9,27.5-11.4c3.4,0.2,6.1,1,7.8,1.5c8.7,2.6,16.4,7.9,23,15.8l-5.4,4.5c-5.7-6.8-12.3-11.4-19.6-13.6       c-1.6-0.5-3.6-1.1-6.2-1.3c-6.7-0.4-15.9,5.5-23.3,10.3c-2.4,1.5-4.7,3-6.8,4.2c-17.5,10-17.6,10.2-18.9,11.9l-0.5,0.6       c-13.1,16.4-1.6,54.5,2.2,65.8L247.6,689.6z"/>
				</g>
				<g>
					<path class="st8" d="M355.8,748.7c-2.1-5.5-4-11.1-5.8-16.7c1.9,4.9,3.9,9.8,6.1,14.6C356,747.3,355.9,748,355.8,748.7z"/>
				</g>
				<g>
					<path class="st10" d="M379.6,732.4c-6.8,9.8-14.7,17.6-18.3,20.6c-11,9.1-16.6,11.2-26.5,15.2c-7.7,3.1-13.1,2.5-18.6,8.9       c-1.6,2.3-3.9,3.4-6.1,4.5c-1.1,0.6-2.2,1.1-3.2,1.9c-3.9,2.8-6.5,5.4-7.8,6.6c-4,3.7-13.7,12.7-27.1,25.2       c-17.5,16.3-44.3,18.6-63.9,4.5c-3.9-2.8-7.3-6.1-10.3-9.9c-4.1-5.4-6.7-11.1-8.2-16.4c-3.1-11.1-0.5-23,6.9-31.8       c10.4-12.3,26.6-32,32.5-41c1.9-2.9,3.2-5.6,3.4-5.9c2.8-5.7,4.4-11.6,5.9-19.2c1.7-8.5,3.6-18.2,7.2-27.1       c0.6-1.4,1.2-3,1.9-4.6c0.9-2.1,1.9-4.3,3-6.5c1.3-2.7,2.8-5.4,4.3-7.7c8.7-13.5,19.1-23.7,31.8-31.7c1.5-0.9,3.1-1.8,4.7-2.6       c6.8-3.3,15.4-6.6,25.7-8.7l0.3-0.1c19.3-3.8,39.1,3.5,53,19.7c10.6,12.4,18.4,27.7,22.5,46.7       C396.8,692.1,388.2,719.9,379.6,732.4z"/>
				</g>
				<g>
					<path class="st8" d="M378.6,733.7c-3.2,5.6-14.4,17-17.6,19.6c-9.9,7.9-16.7,11.2-26.3,14.9c-7.4,2.8-27.8,13.9-32,15.8       c4.4-5.4,9.9-11.2,16.7-16.6c12.6-9.9,18.6-9.7,26.1-20.4c7.2-10.2,9.6-21.4,10.3-24.7c1.6-8,1.6-15.1,1.3-20.1       c3,3.2,6.1,6.8,9.1,11C371.8,720.5,375.8,727.6,378.6,733.7z"/>
				</g>
				<g>
					<path class="st5" d="M360.2,726.1c-1.3,10.7-6.8,17.4-17.1,29.9c-10.2,12.4-18.4,17.1-20.6,18c-0.3,0.1-2.2,0.9-4.4,2.2       c-2.2,1.3-3.6,2.6-4,3c-3.9,3.4-12.1,8.7-15.1,10.8c-11.2,7.8-17.7,16.5-27.1,25.2c-17.5,16.3-44.3,18.6-63.9,4.5       c-3.9-2.8-7.3-6.1-10.3-9.9c-4.1-5.4-6.7-11.1-8.2-16.4c-3.1-11.1-0.5-23,6.9-31.8c10.4-12.3,26.6-32,32.5-41       c1.9-2.9,3.2-5.6,3.4-5.9c2.8-5.7,4.4-11.6,5.9-19.2c1.7-8.5,3.6-18.2,7.2-27.1c0.6-1.4,1.2-3,1.9-4.6c0.3-0.8,0.7-1.6,1.1-2.4       c1.5-3.3,4.7-5.4,8.5-5.7l0.1,0c5.4-0.4,10.6,1.5,13.8,3.7c9.8,6.7,12.5,24.4,7.7,45.7c-0.9,3.9,3.5,6.8,6.7,4.6       c12.2-8.2,32.7-18.9,52.2-14.6c4.2,0.9,12.5,2.7,18,9.6C362,712.2,360.6,722.3,360.2,726.1z"/>
				</g>
				<g>
					<path class="st10" d="M240.3,696.1c3.6-32.1,17.7-58.9,40.7-74.4c7.7-5.2,16.1-8.1,24.9-10.2c-13.9,6.9-26.8,15.3-37.4,27.7       C255,655.1,246.5,674.5,240.3,696.1C240.4,696.1,240.3,696.1,240.3,696.1z"/>
				</g>
				<g>
					<path class="st7" d="M248.3,781.1c-1.5,2-17.2,28.5-19.4,25.3c-2.1-3.2,6.6-18,8.7-22.4s7.7-13.8,10-16.6       c3.5-4.2,12.8-12.4,15.9-10C266.7,760,249.7,779.3,248.3,781.1z"/>
				</g>
				<g>
					<path d="M231.5,809.2c-3,4.6-9.5,5.5-15.8,3.2c0,0-0.1,0-0.1,0c-2.1-1.1-4.3-1.9-6.2-3.3c-8.9-6.4-10.8-14.2-6.5-22       c0.1-0.3,0.4-0.5,0.5-0.7c1.5-2.3,5.7-3.3,8.4-2.3c9.5,3.4,19,8.2,21.5,16.5C234.6,804.1,233.4,806.4,231.5,809.2z"/>
				</g>
				<g>
					<path d="M197.8,809.8c-9-12.8-13-29.9-6.4-44.7c3.1-7.3,7.8-13.6,12.6-19.8c4.7-6,9.6-12,14.6-17.7       c7.3-8.1,12.5-17.5,14.8-28.1c0.7-3.1,1.7-7.8,2.4-11c3.2-15.1,9-30.2,18-42.8c1.5-2,5-6.3,7.4-8.9       c7.7-8.5,17.3-15.1,27.4-20.4c-8.8,6.8-17.3,14.3-24,23.2c-2.1,2.8-4.2,5.9-6.1,8.8c-6.9,11.1-12.6,27.2-15.2,41.6       c-0.7,3.4-1.4,7.9-2.2,11.3c-1.7,7.7-4.7,15.6-9.3,22.1c-4.3,6.5-10,11.9-15,17.7l-7.4,8.5c-6.1,7.1-11.9,14-15.2,22.6       C189.6,784.6,192.6,798.2,197.8,809.8L197.8,809.8z"/>
				</g>
				<g>
					<g>
						<path class="st6" d="M298.5,725.2c1.2-2.4,8.9-11.9,17.7-10.8c0.4,0.1,13.1,0.3,16.5,6.4c4.1,7.2,6.4,19.3-1,27.2        c-0.9,0.9-1.2,1.7-2,2.4c-5.3,4.3-11.4,5.9-17.3,4.7c-6.7-1.4-12.5-6-14.9-12.4c-0.1-0.3-0.3-0.7-0.4-1.1        C294.6,733.7,297.7,726.8,298.5,725.2z"/>
					</g>
					<g>
						<path d="M297.8,726c4.1-8.3,9.1-12.2,18.3-13.7c3.7-0.1,7.3,0.5,10.9,1.7c3.4,1.1,7,3.4,8.7,6.9c3.8,7.6,4.3,17,0.1,24.6        c-2.1,3.5-5.1,5.8-8.3,8.1c-3.2,2.1-6.9,3-10.6,3.8c5-2.6,9.4-5.2,12.7-9.6c3.5-3.9,4.6-8.7,4.4-13.8        c-0.2-4.2-1.2-8.3-3.3-11.8c-0.3-0.5-0.9-1.1-1.3-1.5c-3.4-2.7-8.4-3.8-12.7-4.4c0,0-0.3,0-0.3,0c0,0,0,0,0.1,0        c0,0-0.1,0-0.1,0c-3.7,0.3-7.4,0.8-10.5,2.6C302.9,720.6,300.5,723.4,297.8,726L297.8,726z"/>
					</g>
					<g>
						<path d="M329.3,738c-2.9,7.5-10.4,14.2-19.6,11c-8.1-2.8-8.8-10.8-8-17.6c0.1-0.9,0.5-2.3,0.9-3.2c1.3-3,3.4-6.5,6.1-8.3        c4.1-2.9,8.1-4.9,13.4-2.7C330.8,720.7,332.2,730.4,329.3,738z"/>
					</g>
					<g>
						<path class="st6" d="M314,728.4c-0.9,4-4.2,6.4-8.5,5.6c-2.1-0.4-3.1-1.7-4.3-3.2c0.3-1.1,0.5-2.2,1-3.2        c1.4-3.3,3.4-6,6.1-8.5c0.2,0,0.4,0,0.6,0.1C313.1,720.9,314.9,724.5,314,728.4z"/>
					</g>
				</g>
				<g>
					<g>
						<path class="st5" d="M254.3,713c3.3-1.4,5.8-4,7.2-7.3c2.8-6.7,4.5-13,3.5-21.4c-0.1-0.5,0.2-10.5-7.8-10.4        c-8.9,0-15.9,12.4-16.9,19.3c-0.5,3.4-0.9,8-0.4,12.5c0.5,5.1,5.7,9.2,11,8.3c0,0,0.1,0,0.1,0        C252.2,713.8,253.3,713.5,254.3,713z"/>
					</g>
					<g>
						<path d="M260.3,708.4c2.7-7.4,4.7-15.2,3.5-23.1c-0.2-4.7-1.5-10.5-7.4-9.8c-4.6,0.6-8.1,4.6-10.7,8.3        c-4.7,6.9-6.5,15.3-5.6,23.6c-2-6.6-1.6-13.9,1-20.3c2.8-6.7,8.2-14.5,16.3-14.6c6.2,0,8.9,6,8.8,11.4c0,0.3,0,0.9,0.1,1.2        C267.1,693.3,264.4,701.4,260.3,708.4L260.3,708.4z"/>
					</g>
					<g>
						<path d="M252.5,688.7c-2.7,4.3-8.6,14.2-4.6,21c1,1.8,2.2,2.8,3.5,3.2c4.5,1.6,9.4-4.5,10.1-5.4c2.7-3.3,3.3-6.6,4.5-13.2        c1-5.9,0.5-8.3-1-10c-0.3-0.3-1.1-1.2-2.3-1.6C258.5,681.5,253.6,687,252.5,688.7z"/>
					</g>
					<g>
						<path class="st6" d="M247.2,686.1c-1.4,2.1-4.3,7.1-2.3,10.5c2,3.4,5.3,1.1,6.8-1.1c1.5-2.2,4.3-7.3,2.3-10.8        C252,681.3,248.6,684,247.2,686.1z"/>
					</g>
				</g>
				<g>
					<g>
						<path class="st10" d="M387.4,665.2c14-3.9,27.3,1.4,39.2,10.4c9.5,7.2,12.9,29.8,13.6,36.5c4.6,41.7-19.9,55.9-31.8,79.7        c-9.5,18.9-8.5,23.9-19.8,29.8c-4.7,2.4-6-2.8-6.8-3.8c-12.9-16.5,7.4-54.3-2.2-80.8c-2.9-7.9-7.7-12.7-13-18.2        c-1.3-3.2-2.5-4.8-2.6-8.7c-0.2-7.8,3.5-13.8,9.2-17.7C378,683.2,382.7,674.1,387.4,665.2z"/>
					</g>
					<g>
						<path class="st8" d="M408.5,791.8c-9.7,18.3-8,24.1-20,29.8c-5,2.4-4.3-3.2-6.8-3.8c-2.4-0.6-1.1-2.5-2.7-3.3        c2-4,2.3-5.3,4.6-9.8c1.8-3.6,2.3-5.3,5.5-10.7c7.1-12.1,22.8-24.1,31.2-36.1c10.5-15.1,16.1-31.9,19.3-50.4        c0.4-2.1,0-0.9,0.3-2.3c0.5,1.7,0.4,6.3,0.6,8C444.6,752,420.6,768.8,408.5,791.8z"/>
					</g>
					<g>
						<path class="st5" d="M386.9,793c-1.9,8.3-4.3,15-7.2,22.4c-9.2-20.6,9.8-50,0.1-78.5c-1.9-5.7-5.3-9.3-8.6-13.8        c8.1,8.7,14.5,15.9,17.9,28.6C392.8,765.4,389.8,779.8,386.9,793z"/>
					</g>
					<g>
						<path d="M364.8,714.2c5.1,5,9.5,10.1,13.8,15.8c4.5,5.3,8.9,11.3,11.7,17.8c4.4,9.8,3.5,21.9,1.1,32.1c-1,3.4-2.2,6.8-4.3,9.7        c2.8-9.9,2.5-20.4,1.3-30.5c-0.4-2.3-0.9-4.9-1.7-7.1c-1.6-3.9-3.5-7.6-5.6-11.2c-2.6-4.3-5.9-8.6-8.4-13.2        C370.2,723,367.2,718.9,364.8,714.2L364.8,714.2z"/>
					</g>
					<g>
						<path d="M387.5,665.2c14-5.1,29.3,0.8,40.8,9.2c11.7,9.3,16.1,36.8,15.8,51.2c-0.2,15.9-6.6,31-15.8,43.6        c-4.9,6.9-9.9,13.3-14,20.4c-2.3,4.1-4.5,8.8-6.5,13.1c-3.8,8.6-6.8,17.1-16,21.6c-5.7,3.5-10.5,1.5-13-4.3        c-5.2-6.6-5.5-17.6-4.4-26.3c2.1-21.7,12.2-47.2-2.3-66.4c-2-2.7-4.3-5.2-6.6-7.8c-0.9-2.4-2.2-5-2.4-7.7        c-0.4-5.2,1.1-10.6,4.5-14.6c1.6-2,3.6-3.6,5.7-4.9c-2,1.6-3.7,3.4-5.1,5.4c-2.7,4-3.7,9.1-2.9,13.8c0.4,2.4,1.7,4.4,2.7,6.6        c0,0-0.3-0.5-0.3-0.5c4.9,4.7,10.1,9.6,13,16c8.7,19.2,2.2,40.7,0.6,60.6c-0.5,7.1-0.9,15.1,3.5,20.9c0.5,0.6,1,1.7,1.3,2.2        c0.1,0.3,0.3,0.5,0.4,0.7c0.2,0.4,0.4,0.4,0.2,0.3c0,0-0.1-0.1-0.2,0c0,0-0.1,0-0.1,0c0,0,0,0,0,0c0.1-0.1,0.2,0,0.3-0.1        c1.7-0.8,3.5-2,4.9-3.1c4.7-4,6.2-10.1,8.9-15.7c2.7-6.1,6-12.7,9.7-18.3c11.5-17.1,24.3-29.6,26.8-51.1        c1.3-9.6,0.6-19.5-1.2-28.9c-1.5-7.7-3.4-15.9-8.3-22.1c-0.9-1.2-2.2-2.1-3.4-3.1C413.8,667.8,400.7,662.1,387.5,665.2        L387.5,665.2z"/>
					</g>
				</g>
				<g>
					<path d="M208.1,819.7c14.9,7.6,33.8,11.7,48.8,2.7c1-0.5,3.5-2.2,4.5-2.9c8.1-5.3,15.5-11.2,22.7-17.7       c7.1-6.6,14.4-13.3,22.7-18.5c-7,6.9-13.3,14.1-20,21.3c-6.7,7.2-14.4,13.6-22.7,19c-4.2,2.8-8.8,5.4-13.7,6.7       C235.7,834.3,219.6,829.1,208.1,819.7L208.1,819.7z"/>
				</g>
			</g>
            </svg>