<?xml version="1.0" encoding="utf-8"?>
<!-- Generator: Adobe Illustrator 28.0.0, SVG Export Plug-In . SVG Version: 6.00 Build 0)  -->
<svg version="1.1" id="Layer_1" xmlns="http://www.w3.org/2000/svg" xmlns:xlink="http://www.w3.org/1999/xlink" x="0px" y="0px"
	 viewBox="0 0 1000 1000" style="enable-background:new 0 0 1000 1000;" xml:space="preserve">
<style type="text/css">
	.st0{display:none;}
	.st1{display:inline;}
	.st2{fill:none;stroke:#0DFF00;stroke-miterlimit:10;}
	.st3{fill:#FFFFFF;stroke:#0DFF00;stroke-miterlimit:10;}
	.st4{fill:#0DFF00;}
	.st5{fill:#FFFFFF;}
	.st6{fill:#FAFAFA;}
	.st7{fill:#F5EAD9;}
	.st8{fill:#B27342;}
	.st9{fill:#F4DAA6;}
	.st10{fill:#E7BF7D;}
	.st11{fill:#93562C;}
	.st12{fill:none;stroke:#EC008C;stroke-width:11;stroke-miterlimit:10;}
	.st13{fill:#473B33;}
	.st14{fill:#544A43;}
	.st15{fill:#6D6762;}
	.st16{fill:#FFF4DC;}
	.st17{fill:#756A64;}
	.st18{fill:#101011;}
	.st19{fill:none;stroke:#000000;stroke-miterlimit:10;}
	.st20{fill:#F48264;}
	.st21{fill:#B75328;}
	.st22{display:inline;fill:#F6F6F6;stroke:#231F20;stroke-miterlimit:10;}
	.st23{fill:#B27342;stroke:#000000;stroke-width:7;stroke-miterlimit:10;}
	.st24{display:inline;fill:#272727;stroke:#231F20;stroke-miterlimit:10;}
</style>
<g class="st0">
	<g class="st1">
	</g>
</g>
<g>
	<g>
		<path class="st7" d="M464.5,876.2c-78.2,18.7-118.2,24-153.8,37.6c-8.7,3.3-17.8,7-27.9,10.8c-15.7,5.8-33.9,11.6-57.4,16.2
			c-37.9,7.4-66,13-93.4,2.4c-41.2-15.9-71.4-64.8-56.9-94.8c0.9-1.9,2-3.6,3.2-5.3c4.1-5.6,9.9-9.8,17.5-13.1
			c10.4-4.4,24.3-7.1,42-9.1c5.9-0.7,12.3-1.3,19.1-1.8c0,0,0.1,0,0.1,0c10.7-0.9,22.4-1.7,35.3-2.6c0.4,0,0.9-0.1,1.3-0.1
			c0.1,0,0.2,0,0.3,0c0.2,0,0.3,0,0.5,0c15.3-1.1,32.1-2.3,50.7-4c3.5-0.3,7.1-0.6,10.8-1c0.3,0,0.5,0,0.8-0.1
			c15.3-1.5,31.6-3.2,49-5.4c15.5-1.9,30.2-4.1,44.4-6.4c24.4-4,47-8.4,68-13c7.2-1.6,14.2-3.2,21-4.8
			c69.9-16.4,121.5-33.7,166-39.4c3.8-0.5,7.5-0.9,11.2-1.2c22-1.8,42.4-0.4,62.8,6h0c7.8,2.4,15.6,5.6,23.5,9.6
			c1.4,0.7,13,6.5,25.1,14.9c3.5,2.4,7.1,5.1,10.5,7.9c1.8,1.5,3.6,3.1,5.3,4.7c5.7,5.5,10.3,11.4,12.3,17.3
			c1.4,4.1,1.5,8.2-0.1,12.2c-2,5-6.1,9-12.1,12.3h0c-6.7,3.6-15.7,6.4-27,8.8c-7.7,1.7-16.5,3.1-26.4,4.6c-2.1,0.3-4.2,0.6-6.3,0.9
			l0,0L464.5,876.2z"/>
		<g>
			<g>
				<g>
					<path class="st8" d="M423.6,668.8c-14.1,34.7-28.3,69.4-42.4,104.1c-40.5,14-84.7,27.2-132.6,38.6c-22.6,5.4-44.6,10-65.9,14
						c-3.3,0.6-6.3,2-8.9,4.1c-7.7,6.2-15.5,12.5-23.2,18.7c-0.2,0.2-0.4,0.4-0.7,0.6c-4.2,4-11,9.5-20.4,13.7
						c-3.5,1.5-6.8,2.7-9.9,3.6c-4.1,1.2-7.8,1.8-10.8,2.2c-11.7,1.9-23-3.5-28-13c-3.1-6-2.9-12.1-2-16.5c0.8-4,3.7-7.2,7.5-8.5
						c3.1-1.1,6.2-2.2,9.3-3.3c9-3.2,18-6.5,27-9.7l40.6-30.7c1.9-1.4,3.9-2.5,6.1-3.2l148-46.2c2.2-24.9,4.3-49.8,6.5-74.7
						L423.6,668.8z"/>
				</g>
				<g>
					<path class="st8" d="M780,522.4c-2.8,35.4-13.4,62.9-21.5,79.8c-13.2,28.2-28.4,57.9-45.8,88.7c-14,24.7-28.1,47.9-42.1,69.4
						c-1.5,2.2-3.5,4-6,5.1c-5.5,2.3-12,4.5-19.5,6.2c-3.4,0.8-7,1.5-10.7,2c-4.1,0.6-8,0.9-11.6,1c-3.8,0.1-7.5-1.3-10-4.1
						c-2.5-2.7-5.2-6.5-6.9-11.7c-1.6-4.8-1.9-9.2-1.6-12.7c0.3-4.2,3-7.8,7-9.3c1.3-0.5,2.6-1,3.9-1.5c12.4-4.6,24.8-9.3,37.1-13.9
						c8.9-15.4,18.1-33.5,26.5-54.4c10.1-25.1,16.6-48.4,21-68.3c-2.4-1.2-5.4-2.9-8.6-5.2c-3.2-2.4-6.7-5.4-10-9.3
						c-0.4-0.5-0.9-1-1.3-1.6c-10.2-12.8-13.3-29.9-9-45.8c4-15,11.8-35.1,27.3-55c6-7.8,12.4-14.5,18.9-20.2
						c23.3-20.8,60.5-6.2,63,24.9C780.9,497.5,781,509.6,780,522.4z"/>
				</g>
				<g>
					<path class="st7" d="M119.7,866.2c-4.1,1.2-7.8,1.8-10.8,2.2c-11.7,1.9-23-3.5-28-13c-3.1-6-2.9-12.1-2-16.5
						c0.8-4,3.7-7.2,7.5-8.5c3.1-1.1,6.2-2.2,9.3-3.3c0,3.7,0.4,7.8,1.7,12.2C101.5,852.7,111.4,861.2,119.7,866.2z"/>
				</g>
				<g>
					<path class="st7" d="M645.1,771.6c-3.4,0.8-7,1.5-10.7,2c-4.1,0.6-8,0.9-11.6,1c-3.8,0.1-7.5-1.3-10-4.1
						c-2.5-2.7-5.2-6.5-6.9-11.7c-1.6-4.8-1.9-9.2-1.6-12.7c0.3-4.2,3-7.8,7-9.3c1.3-0.5,2.6-1,3.9-1.5c0.3,1.9,0.7,3.8,1.3,5.8
						C621.5,758.4,636.4,767.6,645.1,771.6z"/>
				</g>
			</g>
			<g>
				<path class="st8" d="M938,318.1c-30.9,34-82,47.8-132.4,37.4c-3-0.6-2.7-5,0.3-5.3c25-2.3,69.5-11.9,102-49.3
					c39.1-45.1,46.1-113.6,17.2-173.4c-1.3-2.8,2.4-5.2,4.4-2.9C981.7,184.8,981.8,269.8,938,318.1z"/>
			</g>
			<g>
				<path class="st10" d="M942.5,255.6c-1.3,3.6-2.8,8.1-4.3,11.6l-4.1,9c-24.4,48.4-74.6,76.1-128.3,73.9
					c25-2.3,69.5-11.9,102-49.3c39.1-45.1,46.1-113.6,17.2-173.4c14.1,21.4,22.3,46.6,24.1,72.3C950.5,218.4,948,237.6,942.5,255.6z
					"/>
			</g>
			<g>
				<path d="M924,127.9c-1.8-3.3,2.7-7,5.7-4.4c3,3.2,6.3,7.3,8.9,10.8c27.9,36.5,40.1,85.2,30,130.3
					c-10.8,48.1-45.9,82.4-93.6,93.9c-22.9,5.7-46.9,5.6-69.9,1c-7.8-1.2-7.5-12.4,0.4-13.2c18.4-1.8,36.5-6.2,53.4-13.7
					C938.3,297.3,959.7,202.6,924,127.9L924,127.9z M925.9,127c38.8,77.6,16.9,176.7-66.3,213.3c-16.7,7.4-34.7,11.9-52.9,13.7
					c0,0-0.3,0-0.3,0l-0.2,0c0.5,0,1.1-0.6,1.2-1.1c0.1-0.6-0.4-1.3-1-1.5c0,0,0,0-0.1,0c0,0,0.1,0,0.1,0l0.3,0.1l0.6,0.1l5,0.9
					c23.5,4,47.9,2.7,70.7-4.5c42.8-13.4,72.1-45.9,81.3-89.8c9.4-44.1-3.3-91.4-30.8-126.8c-1.5-2.1-3.3-4-4.9-6.1
					C927.6,123.8,925,125.2,925.9,127L925.9,127z"/>
			</g>
			<g>
				<path d="M425.7,667.5c-12,31.2-26.2,68-38.7,98.9c0,0-1.3,3.3-1.3,3.3c-1.3,3.4-4.3,6.4-7.9,7.5c0,0-1.6,0.6-1.6,0.6
					c-59.4,20.3-120.1,36.8-181.6,48.9c0,0-6.8,1.3-6.8,1.3c-1.7,0.3-4.8,0.8-6.4,1.3c-3.6,1-7.6,4.7-10.4,7
					c-4.1,3.3-13.5,10.9-17.5,14.2c-11.8,11.2-27,18.9-43.2,21C97.5,874,83,868,77.5,855.9c-2.8-6-3.2-13.1-1.3-19.4
					c1.4-4.2,5-7.5,9.1-8.9c11.9-3.8,23.9-7.2,35.7-11.3c1.1-0.3,2.4-1.3,3.3-2c5.6-4.1,11.1-8.4,16.6-12.7
					c5.5-4.3,16.5-12.9,22-17.2c3.4-2.6,9.4-3.9,13.5-5.2c35.3-10.8,84.3-25.8,119.7-36.8c1.6-0.6,14.8-4.4,16.3-5.2
					c2.7-1.4,4.3-4.3,4.4-7.3c0.3-4,5.1-59.7,5.3-62.4c0,0,0.3-3.5,0.3-3.5l0-0.2c0-0.1,0-0.1,0-0.3c0.2-1.6,1.8-2.8,3.4-2.5
					c0,0,0.9,0.1,0.9,0.1C358.8,662.9,393.6,665.1,425.7,667.5L425.7,667.5z M421.6,670.1c-31.3-1.6-65-3.6-96.3-5.8c-0.1,0,0,0,0,0
					c0.2,0,0.3-0.2,0.4-0.3c0-0.1,0,0.1,0,0.1l0,0.2c-0.2,2-0.7,8.2-0.9,10.4c0,0-5,55.4-5,55.4c-0.1,2.6-1.1,5.3-2.9,7.2
					c-1.7,2-4.2,3.2-6.6,3.8c0,0-13.3,4.2-13.3,4.2c-38.1,11.9-88.1,27.9-126,39.9c-2,0.6-4,1.5-5.7,2.7c-7.6,5.6-26.3,19-33.6,24.6
					c-1.9,1.4-3.7,2.8-5.5,4.2l-1.4,1.1c-1.1,0.8-2.2,1.3-3.5,1.7c-11.3,4.2-22.7,9.1-33.9,13.6c-3.4,1.4-5.5,4.7-5.7,8.3
					c-0.5,4-0.1,8.1,1.7,11.8c3.5,7.4,11.5,12,19.6,12.3c17.2-0.3,33.7-8.3,46-20.1c4.1-3.3,13.4-10.8,17.6-14.2
					c0,0,5.5-4.4,5.5-4.4c2.9-2.3,6.4-3.8,10.1-4.5c0.3-0.1,3.8-0.7,4.3-0.8c56.8-10.8,113-25,168-42.7c6.4-2,13.4-4.4,19.8-6.5
					c0,0,1.6-0.6,1.6-0.6c1.2-0.4,2.2-1,3-2c1.4-1.6,1.7-3.5,2.6-5.2c1.8-4.2,6-14.6,7.8-18.8C398.7,723.1,411.9,692.5,421.6,670.1
					L421.6,670.1z"/>
			</g>
			<g>
				<path d="M761,602.3c-1.1,3-3.2,7.2-4.6,10.2c-24.6,51.4-52.1,101.5-82.8,149.5c-1.9,3.1-4.9,5.6-8.3,6.9c-1.2,0.5-2.5,1-3.6,1.5
					c-12.2,4.9-25.2,8.3-38.4,8.8c-14.2,1-22.6-15.6-23.6-27.8c-0.9-8.1,1.7-15.7,9.8-18.8c0,0,0.6-0.2,0.6-0.2l2.4-0.9l38.2-14.1
					l-2.2,1.9c11-18.8,20.6-38.5,28.7-58.8c8.1-20.3,14.5-41.2,19.4-62.5c0,0,1.7,3.6,1.7,3.6c-4.6-2.3-8.9-5.2-12.8-8.6
					c-11.6-10.1-19-24.7-20.6-40c0,0,0-0.1,0-0.1l3.4,2l-92.5,36l-3.4,1.3v-3.7V471.8v-1.3l1.1-0.7l144-94.8l1.8-1.2l1.4,1.6
					l49.3,53.9l1.2,1.3c-13.5,26.4-21.6,55.5-23.3,85.2c-1.5,27.2,2.2,54.7,11,80.5C759.7,598,760.5,600.4,761,602.3L761,602.3z
					 M756,602.1c-0.7-1.3-1.2-2.8-1.7-4.3c-9-26.4-12.9-54.5-11.3-82.4c1.7-29.7,9.6-59,23-85.6c0,0,0.4,2.8,0.4,2.8l-49.3-53.9
					l3.2,0.4l-144,94.8l1.1-2.1v116.7l-3.4-2.3l92.5-36l3-1.1l0.4,3.2l0,0.1c2.4,18.5,14.3,35.5,31.2,43.4c0,0,2.2,1.1,2.2,1.1
					l-0.5,2.5c-9,43.5-24.9,85.7-47,124.2c0,0-0.7,1.3-0.7,1.3l-1.5,0.6l-38.1,14.5l-2.4,0.9l-0.6,0.2c-1.3,0.5-2.4,1.4-3.1,2.6
					c-1.3,2.1-0.9,4.7-0.8,7.1c0.5,5.8,2.9,11.4,6.7,15.9c1.7,2.3,4.5,3.6,7.4,3.4c13.7-0.5,27.5-2.7,40.2-7.8
					c1.6-0.6,3-1.7,4.1-3.1c0.2-0.2,0.4-0.6,0.6-0.8c0,0,1.4-2.1,1.4-2.1l2.8-4.2c29.6-45.4,56.4-92.7,79.9-141.5
					C752.9,608.1,754.8,604.2,756,602.1L756,602.1z"/>
			</g>
			<g>
				<path class="st10" d="M864.5,470.3C864.5,470.3,864.5,470.3,864.5,470.3c-1.4,5.5-2.9,10.7-4.7,15.8c-1.4,4.1-2.9,8-4.5,11.8
					c-0.8,1.9-1.6,3.8-2.4,5.6c-1.4,3.1-2.8,6.1-4.2,9c-0.7,1.4-1.5,2.9-2.2,4.3c-0.9,1.7-1.8,3.3-2.7,4.9c-0.9,1.6-1.8,3.2-2.7,4.7
					c-0.5,0.8-0.9,1.5-1.4,2.3c-1.4,2.2-2.7,4.4-4.1,6.5c-0.9,1.4-1.8,2.7-2.7,4c-2.2,3.2-4.4,6.2-6.4,9c-0.8,1.1-1.6,2.1-2.4,3.2
					c-1.2,1.5-2.3,2.9-3.4,4.2c-0.7,0.9-1.4,1.7-2.1,2.5c-1,1.2-1.9,2.3-2.8,3.2c-0.3,0.3-0.6,0.6-0.8,0.9c-0.5,0.6-1,1.1-1.5,1.6
					c-0.7,0.7-1.3,1.4-1.8,1.9c-0.5,0.5-0.9,0.9-1.2,1.2c-0.1,0.1-0.2,0.2-0.3,0.3l-0.2,0.2c-0.2,2.9-0.4,5.9-0.6,9
					c-0.6,11.9-0.9,24.5-0.7,37.6c0.3,14.7,1.1,28.6,2.3,41.8c1,10,2.2,19.6,3.5,28.7c0.2,1.5,0.2,3.1,0,4.6c-0.3,2.1-1,4.2-2,6.1
					c-10.6,18.6-21.3,37.9-31.8,57.6c-8.8,16.4-17.2,32.6-25.4,48.7c-4.2,8.2-8.3,16.4-12.2,24.5h0c-1.3,2.6-2.6,5.2-3.8,7.8v0
					c-0.5,0.2-1.1,0.5-1.6,0.7c-1.7,0.7-3.4,1.5-5.3,2.2c-0.6,0.2-1.1,0.4-1.7,0.6c-1.1,0.4-2.3,0.8-3.6,1.2
					c-0.8,0.3-1.6,0.5-2.4,0.8c-1.7,0.5-3.4,1-5.1,1.5c-0.9,0.2-1.8,0.5-2.7,0.7c-0.9,0.2-1.8,0.4-2.7,0.6c0,0-0.1,0-0.1,0
					c-0.9,0.2-1.8,0.4-2.8,0.6c-0.9,0.2-1.8,0.3-2.7,0.5c-0.2,0-0.4,0.1-0.6,0.1c-0.9,0.1-1.7,0.3-2.6,0.4c-4.6,0.6-9,0.9-13.1,1
					c-0.4,0-0.9,0-1.3,0c-0.2,0-0.3,0-0.5-0.1c-0.2,0-0.4-0.1-0.6-0.1c-0.7-0.2-1.5-0.4-2.1-0.7c-0.5-0.2-1-0.5-1.4-0.8
					c-0.5-0.4-1-0.8-1.5-1.2h0c-0.1-0.1-0.3-0.3-0.4-0.4c-0.1-0.1-0.3-0.3-0.4-0.4c-0.2-0.2-0.3-0.3-0.5-0.5
					c-0.7-0.8-1.5-1.7-2.2-2.7c-0.6-0.9-1.2-1.8-1.8-2.8c-0.3-0.5-0.5-1-0.8-1.5c-0.7-1.4-1.3-2.8-1.9-4.5c-0.3-0.9-0.6-1.9-0.8-2.8
					c0-0.1,0-0.1,0-0.2c-0.1-0.3-0.2-0.7-0.2-1c-0.1-0.4-0.2-0.8-0.2-1.1c0-0.2-0.1-0.5-0.1-0.7c0,0,0,0,0,0
					c-0.4-2.7-0.4-5.1-0.2-7.2c0.2-3,1.7-5.7,4.1-7.4c0.8-0.6,1.6-1.1,2.6-1.4c2.3-0.9,4.7-1.8,7-2.6c2.3-0.9,4.7-1.8,7-2.6
					l19.8-7.4c3.9-7.6,7.8-15.2,11.7-22.8c12.6-24.4,25.1-48.9,37.7-73.3c0.3-0.6,0.6-1.3,0.9-2c0.1-0.3,0.2-0.7,0.3-1
					c0.3-1,0.5-2,0.6-3.1c0.4-3.4-0.2-6.9-1.7-10c-2.8-5.8-5.7-11.7-8.5-17.7c-2.8-6-5.6-12.2-8.4-18.5c-1.8-4.1-3.6-8.2-5.4-12.3
					c-1.5-3.6-3.1-7.2-4.6-10.9c-1.9-4.7-3.8-9.4-5.7-14.1c-3.9-9.8-7.5-19.4-10.8-28.7c-0.5-1.3-0.9-2.5-1.3-3.8
					c-1.8-5-3.5-10-5.2-14.9c-0.9-2.6-3.1-4-5.4-4c-2.2-0.1-4.5,1.1-5.5,3.5c0,0.1,0,0.1-0.1,0.2l0,0c-0.7,1.7-1.4,3.5-2.2,5.3
					c-0.8,1.9-1.6,3.8-2.5,5.9c-0.3,0.8-0.7,1.5-1,2.3c-0.4,1-0.9,2-1.3,3c0,0,0,0,0,0c-0.4,0.9-0.8,1.8-1.2,2.7
					c-0.4,0.8-0.7,1.6-1.1,2.4c-0.1,0.2-0.2,0.4-0.3,0.6c-0.3,0.7-0.7,1.5-1,2.2c-0.4,0.8-0.8,1.6-1.2,2.4c-0.1,0.2-0.2,0.3-0.3,0.5
					c-0.7,1.4-1.4,2.8-2.1,4.3c0,0.1-0.1,0.2-0.1,0.2c-0.7,1.3-1.3,2.6-2,4c-0.3,0.6-0.6,1.2-0.9,1.8c-0.3,0.5-0.5,1-0.8,1.5
					c-0.5,1-1.1,2.1-1.7,3.1c-0.6,1-1.1,2.1-1.7,3.1c-0.3,0.4-0.5,0.9-0.8,1.4c-0.3,0.5-0.5,0.9-0.8,1.4c-0.1,0.1-0.2,0.3-0.2,0.4
					c-0.5,0.9-1.1,1.9-1.6,2.8c-1,1.8-2,3.5-3.1,5.3c-0.3,0.5-0.7,1.1-1,1.6c-3.3,5.5-6.9,11.1-10.7,16.7c-0.4,0.6-0.8,1.1-1.2,1.7
					c-1.2,1.7-2.4,3.4-3.6,5.1c-0.4,0.6-0.8,1.1-1.2,1.7c-1.2,1.7-2.5,3.4-3.8,5.1c-0.4,0.6-0.9,1.1-1.3,1.7
					c-0.9,1.1-1.7,2.3-2.6,3.4c-0.4,0.5-0.9,1.1-1.3,1.7c-1.8,2.2-3.6,4.5-5.5,6.7c-2.4,2.8-4.8,5.5-7.3,8.2c-1,1.1-2,2.2-3,3.2
					c-1.5,1.6-3.1,3.2-4.7,4.8c-0.7,0.7-1.3,1.4-2,2c-0.4,0.4-0.8,0.8-1.2,1.1c-3.2,3.2-6.6,6.2-10,9.2c-0.5,0.5-1.1,1-1.7,1.4
					c-1.8,1.5-3.6,3-5.4,4.5c-0.6,0.5-1.2,1-1.8,1.4c-4.3,3.4-8.7,6.6-13.3,9.7c-0.6,0.4-1.2,0.8-1.8,1.2c-0.7,0.4-1.3,0.9-2,1.3
					c-5.9,3.9-12.1,7.5-18.6,10.8c-0.6,0.3-1.2,0.6-1.8,0.9c-1.5,0.8-3,1.5-4.6,2.2c0,0-0.1,0-0.1,0.1c-0.1,0.1-0.3,0.1-0.4,0.2
					c-0.6,0.3-1.2,0.6-1.8,0.8c-0.6,0.3-1.1,0.5-1.7,0.8c-0.8,0.4-1.6,0.7-2.5,1.1c-2.7,1.2-5.4,2.3-8.2,3.3
					c-0.6,0.2-1.2,0.5-1.8,0.7c-3.4,1.3-6.9,2.4-10.5,3.5c-0.9,0.3-1.8,0.5-2.7,0.8c-0.8,0.2-1.5,0.4-2.3,0.6
					c-1.9,0.5-3.9,1-5.9,1.5c-8.6,2.1-18.5,3.8-29.5,4.7c0,0,0,0,0,0c-8.2,0.7-17,0.9-26.4,0.5c-3.2-0.1-6.4-0.4-9.8-0.6
					c-1.1-0.1-2.3,0-3.3,0.3c-1.3,0.4-2.6,1.1-3.6,2c-0.3,0.3-0.6,0.6-0.9,1c-0.4,0.4-0.7,0.9-1,1.4c-0.1,0.1-0.1,0.2-0.1,0.3
					c-0.1,0.2-0.2,0.4-0.3,0.6c-4.5,11-9,22.1-13.5,33.1c-7.5,18.5-15.1,37.1-22.6,55.6c-1.2,2.9-3,5.5-5.2,7.6
					c-0.6,0.5-1.1,1-1.8,1.5c0,0,0,0,0,0c-1.8,1.4-3.9,2.5-6.2,3.3c-9.5,3.2-19.1,6.3-29,9.4c-2.5,0.8-5,1.5-7.4,2.3
					c-12.5,3.8-25.2,7.5-38.3,11.2c-15.7,4.3-31.8,8.5-48.4,12.4c-18.2,4.3-36.1,8.2-53.5,11.6c-2,0.4-3.9,0.8-5.9,1.2
					c-2.2,0.4-4.3,0.8-6.5,1.2c-0.3,0.1-0.6,0.1-0.9,0.2c-0.2,0-0.4,0.1-0.5,0.1c-0.7,0.2-1.4,0.4-2.1,0.7c-0.8,0.3-1.5,0.6-2.2,1
					s-1.4,0.8-2.1,1.3c-0.3,0.2-0.7,0.5-1,0.8l-23.5,19c-4.2,4.1-11.1,9.7-20.7,14c-0.8,0.4-1.7,0.7-2.5,1c-0.4,0.1-0.7,0.3-1.1,0.4
					c-0.5,0.2-0.9,0.3-1.3,0.5c-1.1,0.4-2.3,0.8-3.4,1.1c-0.3,0.1-0.7,0.2-1,0.3c-0.3,0.1-0.5,0.1-0.8,0.2c-0.5,0.1-0.9,0.3-1.3,0.4
					c-0.4,0.1-0.9,0.2-1.3,0.3c-0.9,0.2-1.7,0.4-2.5,0.5c-0.8,0.2-1.6,0.3-2.3,0.4c-0.4,0.1-0.7,0.1-1.1,0.2
					c-0.4,0.1-0.7,0.1-1.1,0.2c-0.3,0-0.7,0.1-1,0.1c-11.7,1.9-23-3.5-28-13c-1-1.9-1.6-3.7-2-5.6c-0.1-0.4-0.2-0.9-0.3-1.3
					c-0.2-1.4-0.3-2.7-0.3-4c0-2,0.2-3.9,0.6-5.5c0.5-2.3,1.6-4.3,3.2-5.9c0.2-0.2,0.4-0.3,0.5-0.5c0.2-0.2,0.4-0.3,0.6-0.5
					c0.4-0.3,0.8-0.6,1.2-0.8c0.6-0.4,1.3-0.7,2.1-1c2.8-1,5.6-2,8.4-3c9.3-3.3,18.7-6.7,28-10l31-23.4h0l9.6-7.2
					c0.9-0.7,1.9-1.3,2.9-1.8c0.5-0.3,1-0.5,1.6-0.7c0.5-0.2,1.1-0.4,1.6-0.6l142.7-44.5c3.2-1,5.5-3.9,5.8-7.3
					c0.2-1.9,0.3-3.8,0.5-5.7c0.5-5.5,1-11.1,1.4-16.6c0,0,0,0,0,0c0.8-9.2,1.6-18.5,2.4-27.7c0.6-6.4,1.1-12.8,1.7-19.2
					c-1.6-2.4-3.2-4.8-4.8-7.4c-0.7-1.1-1.4-2.3-2.2-3.4c0-0.1-0.1-0.1-0.1-0.2c-0.1-0.2-0.3-0.4-0.4-0.7c-1.2-2-2.4-4.1-3.6-6.2
					c-0.2-0.3-0.4-0.6-0.5-0.9c-0.2-0.3-0.3-0.6-0.5-0.9c-0.3-0.6-0.7-1.2-1-1.8c0,0,0-0.1,0-0.1c-0.2-0.3-0.3-0.6-0.5-0.9
					c0,0,0,0,0,0c-0.3-0.5-0.6-1.1-0.9-1.6c-0.2-0.3-0.4-0.7-0.5-1c-0.3-0.6-0.7-1.3-1-1.9c-0.5-0.9-0.9-1.7-1.4-2.6
					c-0.5-1-1-2.1-1.6-3.1v0c-1.2-2.4-2.4-4.8-3.5-7.4c0,0,0,0,0,0c-0.2-0.3-0.3-0.7-0.5-1c-2.3-4.9-4.3-9.7-6.2-14.5
					c-1.1-2.8-2.1-5.6-3.1-8.3c-1.4-3.8-2.6-7.6-3.8-11.3c-2.8-9.1-5.1-17.7-6.8-25.9c-0.9-4.1-1.6-8-2.3-11.8
					c-0.3-1.5-0.5-3-0.7-4.5c-0.4-2.2-0.7-4.3-0.9-6.4c1.2-0.4,2.3-0.8,3.5-1.2c4.7-1.6,9.6-3.3,14.7-5.2c1.3-0.5,2.5-0.9,3.8-1.4
					c2.6-1,5.2-2,7.8-3c3.2-1.3,6.5-2.6,9.8-4c6.3-2.6,12.8-5.5,19.4-8.6c7.9-3.7,16.1-7.8,24.4-12.3c1.5-0.8,3-1.6,4.6-2.5
					c2.3-1.3,4.6-2.5,6.9-3.9c1.5-0.9,3.1-1.8,4.6-2.7c3.4-2,6.8-4,10.2-6.2c1-0.6,1.9-1.2,2.9-1.8c8.2-5.1,16.4-10.6,24.7-16.5
					c7.3-5.2,14.2-10.4,20.9-15.7c3.8-3,7.5-6,11-9c1.8-1.5,3.5-3,5.3-4.5c2.6-2.2,5.1-4.5,7.6-6.7c0.8-0.7,1.7-1.5,2.5-2.2
					c2.9-2.6,5.6-5.2,8.3-7.7c4.2-4,8.3-8,12.1-11.9c1.1-1.1,2.1-2.1,3.1-3.2c3.1-3.2,6-6.3,8.8-9.3c10.7-13,21-25.1,30.8-36.3
					c1.3-1.5,2.6-3,3.9-4.4c2.9-3.3,5.8-6.5,8.6-9.6c1-1.1,1.9-2.1,2.9-3.2c1.5-1.7,3.1-3.4,4.6-5.1c0.9-1,1.9-2,2.8-3
					c2.4-2.6,4.8-5.2,7.2-7.8c1.2-1.3,2.4-2.5,3.5-3.7c0,0,0,0,0,0c1.2-1.2,2.3-2.4,3.5-3.6c0.6-0.6,1.2-1.2,1.7-1.8
					c1.7-1.8,3.4-3.5,5.1-5.3c0,0,0,0,0,0c1.7-1.7,3.4-3.4,5-5.1c0,0,0,0,0,0c0.5-0.5,1.1-1.1,1.7-1.7c0.5-0.5,1.1-1.1,1.6-1.6
					c33.9-33.7,60.8-54.7,82.4-67.4c7.6-4.5,14.5-7.9,20.8-10.5c0.4-0.2,0.6-0.2,0.9-0.4c0,0,0,0,0,0l0,0c1.7-0.7,3.4-1.3,5.1-1.9
					c0,0,0,0,0,0c3.4-1.2,6.9-2.2,10.4-3.1c11-2.7,22.2-3.7,33.1-3c0.6,0,1.1,0.1,1.7,0.1c0.6,0,1.1,0.1,1.7,0.1
					c2.3,0.2,4.6,0.5,6.8,0.9c1.1,0.2,2.3,0.4,3.4,0.6c0,0,0,0,0,0c1.1,0.2,2.2,0.4,3.3,0.7c1.1,0.3,2.2,0.5,3.3,0.8
					c0.6,0.1,1.1,0.3,1.7,0.4c0.5,0.1,1.1,0.3,1.7,0.5c0.5,0.2,1.1,0.3,1.6,0.5c0.5,0.2,1.1,0.3,1.6,0.5c0.5,0.2,1.1,0.4,1.6,0.5
					c0.5,0.2,1.1,0.4,1.6,0.6c1.2,0.4,2.3,0.9,3.5,1.3c1,0.4,1.9,0.8,2.9,1.2c1,0.5,2.1,0.9,3.1,1.4c0.5,0.3,1,0.5,1.5,0.7
					c0.5,0.2,0.9,0.4,1.4,0.7c0.6,0.3,1.3,0.6,1.9,1c0.5,0.2,0.9,0.5,1.4,0.7c4,2.2,7.9,4.6,11.6,7.3c0.4,0.3,0.7,0.5,1.1,0.8
					c0.3,0.3,0.7,0.5,1,0.8c0.5,0.4,1,0.7,1.4,1.1c4.1,3.2,7.9,6.7,11.5,10.5c0.4,0.4,0.7,0.7,1,1.1c0.4,0.5,0.9,0.9,1.3,1.4
					c0.4,0.5,0.8,1,1.3,1.4c0.4,0.5,0.8,1,1.2,1.5c0.4,0.5,0.8,1,1.2,1.5c0.3,0.4,0.7,0.8,1,1.3c1.2,1.6,2.4,3.2,3.6,4.9
					c0,0,0,0,0,0c0,0,0,0,0,0.1c0.2,0.3,0.4,0.6,0.7,0.9c0.1,0.1,0.2,0.3,0.3,0.4c0,0.1,0.1,0.1,0.1,0.2c0.3,0.4,0.5,0.8,0.8,1.2
					c0.1,0.2,0.2,0.3,0.3,0.5c0.2,0.3,0.4,0.7,0.6,1c0.1,0.2,0.2,0.3,0.3,0.5c0.7,1.2,1.4,2.4,2.1,3.6c0.6,1.1,1.3,2.3,1.9,3.5
					c0.3,0.6,0.6,1.2,0.9,1.8c0.6,1.1,1.1,2.3,1.7,3.5c0,0,0,0,0,0c0.6,1.3,1.2,2.6,1.8,3.9c1.4,3.2,2.7,6.5,3.9,9.8c0,0,0,0,0,0
					c0.4,1.2,0.8,2.4,1.2,3.6c0.8,2.2,1.5,4.5,2.1,6.8c0.4,1.4,0.8,2.9,1.2,4.3C872.2,417,870.6,445.4,864.5,470.3z"/>
			</g>
			<g>
				<path class="st10" d="M712.6,302.1c-16.2,9.5-30.8,21.2-44.7,33.7c-49.3,44.9-91.3,97.1-134.3,147.9
					C474,547.7,395,595.4,308.7,612c37-12.1,86.2-32.8,137.4-69.2c33.3-23.7,59.5-48.4,79.5-70.2c91.6-111.1,149-154.8,186.1-170.2
					C712.1,302.3,712.3,302.3,712.6,302.1z"/>
			</g>
			<g>
				<path class="st8" d="M710.3,557.1c-1.5,0.7-3.7,1.8-5.7,3.7c-5,4.9-5.7,11.5-5.9,12.6c-0.9,6-11,27.2-27.2,51.6
					c-10.9,16.4-24.7,34.3-40.2,49.8c-42,41.9-97.1,64.2-132.3,68.4c-5.8,0.7-46.3,5.1-46.3,5.1s-2.1,5.3-5.2,13.2
					c-3,7.9-7,18.4-10.8,28.9c-9.9,27.8-10.9,35.5-20.2,46.6c-5.3,6.4-9.8,11.2-13.2,12.4c-37.9,12.8-79,24.8-123.1,35.4
					c-22.6,5.4-44.6,10-65.9,14c-3.3,0.6-6.3,2-8.9,4.1c-7.9,6.3-15.7,12.7-23.5,19c-4.2,4-11.1,9.6-20.7,14c-1.7,0.7-3.3,1.4-4.9,2
					c-6.1,2.2-11.6,3.3-15.9,3.8c-11.7,1.9-23-3.5-28-13c-1.9-3.7-2.6-7.5-2.6-10.9c5.5,3.6,12.5,5.1,19.6,3.9
					c4.2-0.5,9.7-1.6,15.9-3.8c1.6-0.6,3.2-1.2,4.9-2c9.7-4.3,16.5-9.9,20.7-14c7.8-6.3,15.7-12.7,23.5-19c2.6-2.1,5.7-3.5,8.9-4.1
					c21.3-4,43.3-8.7,65.9-14c44.2-10.5,85.3-22.6,123.1-35.3c6-2,10.8-6.5,13.2-12.4c12-29.6,24.1-59.2,36.1-88.7
					c0.3-0.6,9.2-5.5,9.2-5.5l59-14.1c33.3-7.9,63.8-24.8,88.4-48.6c22.1-21.4,44.6-45.1,67-71.2c14.7-17.2,28.3-34.1,40.8-50.7
					c1.2-1.5,3.6-0.8,3.7,1.1C710,542.8,710.2,548.2,710.3,557.1z"/>
			</g>
			<g>
				<path class="st5" d="M671.6,625.1c-10.9,16.4-24.7,34.3-40.2,49.8c-42,41.9-97.1,64.2-132.3,68.4c-5.8,0.7-46.3,5.1-46.3,5.1
					l0.2-0.2c2.1-1.3,5.2-3.2,9.1-5.3c18.9-10.3,35.1-13.8,43-15.8c18-4.4,34.9-12.3,52.4-18.4C581.1,700.4,617.2,679.6,671.6,625.1
					z"/>
			</g>
			<g>
				<path class="st8" d="M864.5,470.3C864.5,470.3,864.5,470.3,864.5,470.3c-1.4,5.5-2.9,10.7-4.7,15.8c-1.4,4.1-2.9,8-4.5,11.8
					c-0.8,1.9-1.6,3.8-2.4,5.6c-1.4,3.1-2.8,6.1-4.2,9c-0.7,1.4-1.5,2.9-2.2,4.3c-0.9,1.7-1.8,3.3-2.7,4.9c-0.9,1.6-1.8,3.2-2.7,4.7
					c-0.5,0.8-0.9,1.5-1.4,2.3c-1.4,2.2-2.7,4.4-4.1,6.5c-0.9,1.4-1.8,2.7-2.7,4c-2.2,3.2-4.4,6.2-6.4,9c-0.8,1.1-1.6,2.1-2.4,3.2
					c-1.2,1.5-2.3,2.9-3.4,4.2c-0.7,0.9-1.4,1.7-2.1,2.5c-1,1.2-1.9,2.3-2.8,3.2c-0.3,0.3-0.6,0.6-0.8,0.9c-0.5,0.6-1,1.1-1.5,1.6
					c-0.7,0.7-1.3,1.4-1.8,1.9c-0.5,0.5-0.9,0.9-1.2,1.2c-0.1,0.1-0.2,0.2-0.3,0.3l-0.2,0.2c-0.2,2.9-0.4,5.9-0.6,9
					c-0.6,11.9-0.9,24.5-0.7,37.6c0.3,14.7,1.1,28.6,2.3,41.8c1,10,2.2,19.6,3.5,28.7c0.2,1.5,0.2,3.1,0,4.6c-0.3,2.1-1,4.2-2,6.1
					c-10.6,18.6-21.3,37.9-31.8,57.6c-8.8,16.4-17.2,32.6-25.4,48.7c-4.2,8.2-8.3,16.4-12.2,24.5h0c-1.3,2.6-2.6,5.2-3.8,7.8v0
					c-0.5,0.2-1.1,0.5-1.6,0.7c-1.7,0.7-3.4,1.5-5.3,2.2c-0.6,0.2-1.1,0.4-1.7,0.6c-1.1,0.4-2.3,0.8-3.6,1.2
					c-0.8,0.3-1.6,0.5-2.4,0.8c-1.7,0.5-3.4,1-5.1,1.5c-0.9,0.2-1.8,0.5-2.7,0.7c-0.9,0.2-1.8,0.4-2.7,0.6c0,0-0.1,0-0.1,0
					c-0.9,0.2-1.8,0.4-2.8,0.6c-0.9,0.2-1.8,0.3-2.7,0.5c-0.2,0-0.4,0.1-0.6,0.1c-0.9,0.1-1.7,0.3-2.6,0.4c-4.6,0.6-9,0.9-13.1,1
					c-0.4,0-0.9,0-1.3,0c-0.2,0-0.3,0-0.5-0.1c-0.2,0-0.4-0.1-0.6-0.1c-0.7-0.2-1.5-0.4-2.1-0.7c-0.5-0.2-1-0.5-1.4-0.8
					c-0.5-0.4-1-0.8-1.5-1.2h0c-0.1-0.1-0.3-0.3-0.4-0.4c-0.1-0.1-0.3-0.3-0.4-0.4c-0.2-0.2-0.3-0.3-0.5-0.5
					c-0.7-0.8-1.5-1.7-2.2-2.7c-0.6-0.9-1.2-1.8-1.8-2.8c-0.3-0.5-0.5-1-0.8-1.5c-0.7-1.4-1.3-2.8-1.9-4.5c-0.3-0.9-0.6-1.9-0.8-2.8
					c0-0.1,0-0.1,0-0.2c-0.1-0.3-0.2-0.7-0.2-1c-0.1-0.4-0.2-0.8-0.2-1.1c0-0.2-0.1-0.5-0.1-0.7c1.7,1.2,3.8,1.8,5.9,1.8
					c4.1-0.1,8.4-0.4,13.1-1c2.4-0.3,4.7-0.7,6.9-1.1c1.7-0.3,3.4-0.7,5.1-1.1c3.4-0.8,6.7-1.8,9.7-2.8c4.6-1.5,8.7-3.2,12.2-4.8
					c4.8-9.8,9.7-19.7,14.8-29.7c8.5-16.9,17.4-34,26.7-51.3c10.6-19.7,21.2-39,31.8-57.6c1.8-3.3,2.6-7,2-10.7
					c-3.2-21.1-5.4-44.7-5.9-70.5c-0.1-3.9-0.1-7.7-0.1-11.4c0-2.2,0.1-4.4,0.1-6.6v-0.1c0.2-9.9,0.6-19.4,1.2-28.5
					c3.4-3.3,80-81,53.9-180.8c-0.7-2.8-1.5-5.6-2.4-8.3l0,0c-1.3-4.3-2.8-8.4-4.4-12.3c-0.5-1.3-1.1-2.7-1.7-4
					c-0.2-0.4-0.3-0.7-0.5-1.1c0.2,0.3,0.5,0.7,0.7,1c0.1,0.1,0.2,0.3,0.3,0.4c0,0.1,0.1,0.1,0.1,0.2c0.3,0.4,0.5,0.8,0.8,1.2
					c0.1,0.2,0.2,0.3,0.3,0.5c0.2,0.3,0.4,0.7,0.6,1c0.1,0.2,0.2,0.3,0.3,0.5c0.7,1.2,1.4,2.4,2.1,3.6c0.6,1.1,1.3,2.3,1.9,3.5
					c0.3,0.6,0.6,1.2,0.9,1.8c0.6,1.1,1.1,2.3,1.7,3.5c0,0,0,0,0,0c0.6,1.3,1.2,2.6,1.8,3.9c1.4,3.2,2.7,6.5,3.9,9.8c0,0,0,0,0,0
					c0.4,1.2,0.8,2.4,1.2,3.6c0.8,2.2,1.5,4.5,2.1,6.8c0.4,1.4,0.8,2.9,1.2,4.3C872.2,417,870.6,445.4,864.5,470.3z"/>
			</g>
			<g>
				<path class="st5" d="M156.3,937.9c-6.1,2.2-11.6,3.3-15.9,3.8c-11.7,1.9-23-3.5-28-13c-3.1-6-2.9-12-2-16.4
					c0.8-4,3.7-7.3,7.6-8.7c2.8-1,5.6-2,8.4-3c1.1,3.4,2.5,7,4.4,10.6C137.7,924.5,147.8,932.9,156.3,937.9z"/>
			</g>
			<g>
				<path class="st5" d="M727.5,838.6c-0.8,0.3-1.6,0.5-2.4,0.8c-1.7,0.5-3.4,1-5.1,1.5c-0.9,0.2-1.8,0.5-2.7,0.7
					c-0.9,0.2-1.8,0.4-2.7,0.6c0,0-0.1,0-0.1,0c-0.9,0.2-1.8,0.4-2.8,0.6c-0.9,0.2-1.8,0.3-2.7,0.5c-0.2,0-0.4,0.1-0.6,0.1
					c-0.9,0.1-1.7,0.3-2.6,0.4c-4.6,0.6-9,0.9-13.1,1c-0.4,0-0.9,0-1.3,0c-0.2,0-0.3,0-0.5-0.1c-0.2,0-0.4-0.1-0.6-0.1
					c-0.7-0.2-1.5-0.4-2.1-0.7c-0.5-0.2-1-0.5-1.4-0.8c-0.5-0.4-1-0.8-1.5-1.2h0c-0.1-0.1-0.3-0.3-0.4-0.4c-0.1-0.1-0.3-0.3-0.4-0.4
					c-0.2-0.2-0.3-0.3-0.5-0.5c-0.7-0.8-1.5-1.7-2.2-2.7c-0.6-0.9-1.2-1.8-1.8-2.8c-0.3-0.5-0.5-1-0.8-1.5c-0.7-1.4-1.3-2.8-1.9-4.5
					c-0.3-0.9-0.6-1.9-0.8-2.8c0-0.1,0-0.1,0-0.2c-0.1-0.3-0.2-0.7-0.2-1c-0.1-0.4-0.2-0.8-0.2-1.1c0-0.2-0.1-0.5-0.1-0.7
					c0,0,0,0,0,0c-0.4-2.7-0.4-5.1-0.2-7.2c0.2-3,1.7-5.7,4.1-7.4c0.8-0.6,1.6-1.1,2.6-1.4c2.3-0.9,4.7-1.8,7-2.6
					c2.3-0.9,4.7-1.8,7-2.6c-0.4,3.1-0.3,6.5,0.5,10.1c0.9,3.9,2.6,7.5,4.9,10.8c0.6,0.9,1.2,1.7,1.9,2.5c3.4,3.9,7.8,7.3,12.9,9.8
					C719.9,836.5,723.6,837.7,727.5,838.6z"/>
			</g>
			<g>
				<path d="M338.5,713.4L338.5,713.4c0,0.3,0,0.6,0.1,1C338.6,714.1,338.5,713.7,338.5,713.4z M338.5,713.4c0-0.1,0-0.2,0-0.4
					c0-0.2,0.1-0.5,0.2-0.7c0.2-0.6,0.4-0.9,0.5-1c0.1-0.2,0.2-0.2,0.3-0.3L338.5,713.4z M344.5,715.9l1-2.4
					C345.5,714.3,345.2,715.2,344.5,715.9z M701,578.9l0.3-1.5C701.4,577.9,701.2,578.4,701,578.9z"/>
				<path d="M715.1,307.2l0.7-0.3c0,0,0,0,0,0c0.2-0.1,0.4-0.2,0.6-0.3L715.1,307.2z"/>
				<path d="M694,577.4c0-0.5,0.1-1,0.3-1.5L694,577.4z M694.4,575.9c0.2-0.4,0.4-0.8,0.7-1L694.4,575.9z M867.5,473.3l1.1-2
					C868.4,472.1,868,472.8,867.5,473.3z M868.7,471.2l0.1-0.9C868.8,470.6,868.7,470.9,868.7,471.2z M861.9,371L861.9,371
					L861.9,371L861.9,371C861.9,371,861.9,371,861.9,371L861.9,371C861.9,371,861.9,371.1,861.9,371
					C861.9,371.1,861.9,371.1,861.9,371C861.9,371.1,861.9,371.1,861.9,371c0,0.2,0.1,0.2,0.1,0.2c0,0,0,0.1,0,0.1
					C862,371.3,862,371.2,861.9,371z"/>
				<path d="M873,446.1c-0.9,8.5-2.4,16.9-4.4,25.2c0,0,0,0,0,0c-7,27.6-19.9,53.6-36.8,76.4c-5.2,7.3-11.8,15.1-17.8,21.2
					c0-0.5,0.1-0.9,0.1-1.4l-3.7,3.5c0,0,2.9-1.4,2.9-1.4c0,0-0.1,0.1-0.1,0.1l0.2-0.2c0.2-0.2,0.4-0.4,0.6-0.6
					c-2.9,38.1-1.8,76.5,3.6,114.4c0.9,4.8-0.2,10-2.8,14.1c-9.6,17.3-24.2,43.1-33.5,60.4c-7.4,14.3-20.8,39.3-27.9,53.6l-7.8,15.4
					c0,0,0,0.1-0.1,0.1l0-0.1l-2,1.2c0.8,0,1.5-0.4,1.9-1.1l-3.8,7.7c-0.2,0.5-0.6,0.8-1.1,1c-8.4,3.7-17.2,6.8-26.2,8.5
					c-5,1.2-15.2,2.6-22.1,2.6c-2.7,0.1-6.1-1.2-8.4-3.4c-3.1-3.2-5.7-6.7-7.5-10.7c-1.6-3.6-2.3-6.4-2.8-10c-0.4-4-0.7-8.3,1.2-12
					c1.3-2.6,3.7-4.7,6.4-5.8l6.8-2.6l26.4-10c-0.1,0.3-0.3,0.5-0.4,0.8l1.3-1.1l-0.9,0.3c5.2-10.2,10.5-20.4,15.6-30.7
					c10.4-21.1,19.6-42.9,30.7-63.7c2.4-4,3.3-8.9,1.3-13.2c-11.5-23.6-22.6-48.3-32.1-72.8c-6.8-17.7-13.7-36.7-19.7-54.9
					c0.7-1.7,1.7-4.3,2-5.2c-0.8,2-3.2,1.4-3.7,0.1c0.5,1.7,1.1,3.4,1.7,5.2c-0.2,0.5-0.3,0.8-0.4,1.1c-2.5,6.5-5.6,13.8-8.8,20.8
					l0-0.1c0,0.1,0,0.1-0.1,0.2l-0.7,1c0.3-0.2,0.5-0.6,0.7-1l0.1-0.1l-1.9,4c-1.5,3.1-3.3,6.8-4.9,9.9
					c-7.8,15.3-16.5,30.3-26.2,44.5c-26,37.5-59.2,71.2-100.5,91.5c0.1-0.1,0.2-0.1,0.3-0.2c0.2-0.2,0.4-0.3,0.6-0.5l-1.3,0.9
					c0.1-0.1,0.2-0.1,0.3-0.1l-0.3,0.2l-0.3,0.1l-0.5,0.2l0.3-0.1l-3.1,1.5c-9,4.1-19,7.7-28.6,10.3c-11.3,3-23.2,5.2-34.8,6.2
					c-1.6,0.2-3.7,0.2-5.2,0.3c-8.8,0.2-18,0.7-26.8,0l-6.6-0.5c-0.5,0-1-0.1-1.5,0.1c-1.6,0.3-2.9,1.4-3.6,2.8
					c0.1-0.1,0.1-0.2,0.2-0.3l0,0.1l-0.1,0.2c-9.5,22.7-21.4,51.4-30.9,74.2l-5.2,12.5l-0.6,1.6c-0.2,0.5-0.5,1.2-0.8,1.8
					c-1.7,3.5-4.3,6.5-7.3,8.8c0.7-0.6,1.2-1.6,1.2-2.5l-1.3,2.6l-4.4-0.3c0.9,1,2.8,1.3,4,0.5c0.1,0,0.1-0.1,0.2-0.1
					c-2.8,2.1-6.1,3.4-9.4,4.3c-12.8,3.9-26.7,8.7-39.6,12.2c-32.1,9.3-66,18.4-98.7,25.5c-6,1.2-30.9,7-37.3,8.2
					c0,0-12.2,2.6-12.2,2.6c-0.1,0-0.2,0-0.3,0.1l-0.4,0.1l-0.5,0.2l-1,0.3c-2,0.8-3.8,1.9-5.4,3.3l-7.6,6.2
					c-5.3,4.2-10.7,8.6-15.1,12c-10.5,9.9-23.8,16.4-37.8,19.1l-2.3,0.4l-2.3,0.3l-2.4,0.3c-2.4,0.3-5,0.2-7.4-0.1
					c-9.9-1.2-19.2-7.9-22.6-17.5c-2.1-6.1-2.3-14.2,1.3-19.8c1.8-2.6,4.5-4.5,7.5-5.5l1.1-0.4l34.3-12.4l-0.3,0.2l0.6-0.4l-0.3,0.1
					l30.6-23.3h0l1.5-0.5h0c-0.5,0-1,0.2-1.5,0.5l10-7.6c1.9-1.4,4.1-2.5,6.3-3.2c36.7-11.5,88.7-28,125.5-39.6
					c4.3-1.3,13.2-4.2,17.2-5.4c1.9-0.6,3.3-2.3,3.6-4.3l0-0.2l0-0.4l0.3-3.1l0.5-6.2l1-12.3c0,0.6,0.2,1.3,0.5,1.8
					c0.6,1,1.6,1.4,2.6,1.5l-3.1-3.5l0.9-2c-0.1,0.1-0.1,0.1-0.3,0.3c-0.1,0.1-0.3,0.4-0.5,0.9c0,0.2-0.1,0.3-0.1,0.5l3.8-45.5
					c0.2,0.3,0.4,0.7,0.7,1l-0.6-2.2l-0.1,1.2c-4.4-6.6-8.8-13.6-12.6-20.4l-0.1-0.1l-0.1-0.2l-0.1-0.2l-0.1-0.1l-0.1-0.2
					c-0.1-0.1-0.1-0.2-0.2-0.4c0,0,0,0.1,0,0.1c0.7,1,1.8,1.6,2.8,1.6l-2.9-1.8l0,0c-0.1-0.2-0.2-0.4-0.3-0.6c0,0.1,0.1,0.3,0.1,0.4
					l-1.3-2.3l-1.4-2.6c-0.9-1.7-1.8-3.4-2.6-5.1c0.2,0.3,0.4,0.5,0.6,0.8c0,0-1-2.5-1-2.5c0,0.5,0.1,1.1,0.4,1.6
					c0-0.1-0.1-0.1-0.1-0.2l-0.1-0.2l-0.2-0.3l-0.3-0.7c-12.2-24.9-21.2-51.6-26-78.8c-0.8-4-1.3-8-1.9-12c-0.3-1.8,0.8-3.6,2.6-4.1
					c3.5-1.1,7-2.4,10.5-3.7c59.3-20.9,114.6-53.1,162.1-94.3c8-7,16.9-15.1,24.4-22.7c7.9-7.8,15.5-15.5,22.7-24.2
					c6.5-7.6,18.8-22.4,25.2-30c11-12.7,22.3-25.3,33.9-37.5l0,0c-0.8,0.9-1.4,2.1-1.4,3.3l1.4-3.3c0,0,0,0,0,0l3.6-1.6
					c-1.3,0-2.6,0.6-3.6,1.6l0,0c4.8-5.1,10.3-10.9,15.3-15.8c-0.5,0.5-0.9,1.2-1.1,1.7c-0.3,0.7-0.3,1.2-0.3,1.7l1.5-3.5h0v0
					l3.5-1.5c-1.4,0.1-2.3,0.5-3.4,1.4c16-16.2,32.6-31.7,50.2-46.2c16.7-13.6,34.6-26.5,54.4-35.2l2-0.9l1.6-0.6
					c-0.2,0.1-0.3,0.2-0.5,0.3c0,0,0,0-0.1,0h0c0,0,0,0,0,0c0,0-0.1,0.1-0.1,0.1c0,0,0,0,0,0h0c-0.1,0.1-0.3,0.2-0.4,0.3
					c-0.1,0-0.1,0.1-0.2,0.2h0l-0.1,0.1l0,0l3.9-1.6h0l0,0c-0.2,0-0.4,0-0.7,0c-0.1,0-0.3,0-0.5,0.1c0,0,0,0,0,0
					c-0.2,0-0.3,0.1-0.5,0.1c-0.1,0-0.1,0-0.2,0.1c0,0,0,0-0.1,0l0,0c0,0,0,0,0,0l0,0l-0.2,0.1l-0.4,0.2c0.2-0.1,0.3-0.1,0.5-0.2
					l5-1.9c0.1,0,0.2-0.1,0.3-0.1h0c0.1,0,0.1,0,0.2-0.1c17.9-6.1,37.5-7.6,56-4.2l3.4,0.7c-0.1,0-0.2,0-0.3,0l-0.3,0l0.8,0.1
					c0,0,0,0,0.1,0c14.6,3.2,28.8,9.3,41,18c11.4,8.1,21.2,18.3,28.5,30.2c1.2,1.7,2.1,3.4,3.1,5.1c0.3,0.6,0.1,1.4-0.5,1.7
					c-0.6,0.3-1.3,0.1-1.7-0.4l-1.7-2.4l-0.5-0.6l-0.4-0.5l-0.8-1l-1.7-2.1c-3.2-4.1-7.1-8.1-10.9-11.7c-17.3-16.2-42-26.4-62.8-28
					c-15.9-1.7-32.2,0.4-47.2,5.8c2-0.9,3.5-2.9,3.4-5l-3.8,5.2c0,0,0,0,0,0h0l-1.8,0.3c0.6,0,1.1-0.1,1.7-0.3l-3.7,1.4
					c0.1,0,0.2-0.1,0.3-0.1l-1,0.4l0.7-0.3c-1.7,0.7-4.1,1.8-4.7,2c-31.5,14.7-58.6,37.2-84,60.8c-6.1,5.7-12.2,11.6-18.1,17.5l0,0
					l0,0c0.9-0.9,1.5-2.2,1.5-3.5l-1.5,3.5c0,0,0,0,0,0.1l-3.4,1.5c1.3,0,2.5-0.6,3.4-1.5l0,0l0,0c-3.7,3.6-7.8,8-11.5,11.7l-3.8,4
					l0,0l0,0c0.5-0.5,0.9-1.1,1-1.7c0.1-0.3,0.2-0.5,0.2-0.8c0-0.3,0.1-0.4,0.1-0.9l-1.4,3.3c0,0,0,0-0.1,0l-3.6,1.5
					c1.2,0.1,2.6-0.6,3.6-1.5l0,0l0,0c-2.5,2.7-5.1,5.4-7.6,8.1c-17.4,18.4-35.1,39.3-51.6,58.7c-8.3,10-18,19.4-27.4,28.5
					c-9.2,8.9-19.6,18.1-29.6,26.2c-46.5,38.2-100,67.9-156.8,87.5c-2.5,0.9-5.1,1.8-7.6,2.6c-0.2-1.1-0.3-2.1-0.5-3.2l-2.6,4.2
					c1-0.3,2-0.7,3.1-1c2.7,18.3,7,36.8,13.1,54.2c3.6,10.5,8.5,22.1,13.3,32l0.2,0.3l0.1,0.2c0,0,0,0,0,0c-0.1-0.3-0.3-0.5-0.5-0.7
					l1,2.4c0-0.2-0.3-1.3-0.3-1.5c1.6,3.4,3.5,6.9,5.3,10.1l0,0c-0.6-1-1.6-1.7-2.9-1.7l2.9,1.7c0,0,0,0.1,0,0.1l0.4,1.6
					c0-0.6-0.2-1.1-0.4-1.6l0,0l0.3,0.5l0.1,0.3c0,0,0,0.1,0.1,0.1l0.1,0.1c3.9,7.1,8.5,14.5,12.9,21.2c0.5,0.7,0.6,1.5,0.6,2.2
					l-4.2,46.8c0.1-1.5-0.8-3-2.4-3.4c-0.3-0.1-0.4-0.1-0.8-0.1l3.1,3.5c0,0,0,0,0,0l-0.9,2c0.5-0.5,0.8-1.2,0.9-1.9
					c-0.2,3.4-1.4,15.2-1.7,18.6l-0.3,3.1c-0.2,4.3-3,8.3-7,9.9c-0.3,0.1-0.7,0.2-1,0.4l-0.8,0.2l-1.5,0.5l-3,0.9
					c-42.2,13.1-96.9,29.8-139.1,43l-1.2,0.6c-0.8,0.4-1.6,0.9-2.4,1.4c0,0-10,7.5-10,7.5c0,0,0,0-0.1,0.1l0.1-0.1l-1.5,0.5
					c0.5,0,1-0.1,1.4-0.4l-31,23.2c-0.2,0.1-0.4,0.3-0.6,0.3l-34.7,12.3l-2.1,0.8c-2.9,1.1-5.2,3.7-5.8,6.8
					c-0.9,4.1-0.8,8.5,0.7,12.4c2.8,8,10.6,13.5,19,14.5c2.8,0.3,5.8,0.2,8.5-0.3c3-0.5,5.8-1,8.7-1.8c11.5-3.2,22-9.5,30.5-17.9
					c7.2-5.9,15.5-12.7,22.8-18.5c2.5-2,5.4-3.7,8.5-4.6c1.3-0.4,1.1-0.3,2.2-0.5c16.2-2.9,33.1-5.9,49.1-9.6
					c45.1-10.2,90.5-23.3,134.2-38.2c3.6-1.3,7.6-2.2,10.6-4.6h0v0c-0.4,0.3-0.7,0.6-0.9,1.1c-0.2,0.4-0.2,0.6-0.3,0.9
					c0,0.2,0,0.2,0,0.3c0,0.1,0,0.2,0,0.3l1.3-2.6l0,0l4.3,0.3c-1.1-1.2-3.1-1.2-4.3-0.3v0c3.2-2.4,5.3-5.8,6.6-9.5l5-12.6l10-25.2
					c4.7-12,12.9-32.4,17.6-44.1c0.8-2,1.7-4.4,2.5-6.2c1.1-2.5,4.5-6.2,9.2-7.1c1.2-0.2,2.5-0.3,3.7-0.2l0.2,0h0.1
					c2.3,0.2,7.5,0.5,9.7,0.6c8.4,0.3,17.5-0.2,25.9-0.6c0.8-0.1,2.3-0.2,3.1-0.3c8.4-0.8,17.2-2.5,25.4-4.4
					c5.9-1.4,12.9-3.6,18.6-5.5c3.5-1.1,8.6-3.2,12.1-4.6c1.6-0.7,4.5-2,6.2-2.7c-0.4,0.2-0.7,0.5-1,0.7l1.3-0.9
					c15.4-7,30.2-16,43.6-26.5c29.5-23.2,53.9-55.7,71.5-87.3c3.9-7,7.6-14.2,11.1-21.4c1-2.1,1.9-4,2.8-5.9l1.8-4l0,0l0,0l1.8-4
					c1.9-4.6,4.2-10,5.8-14.4c0.9-2.5,2.3-6.2,3.2-8.7c2-4.7,9.3-4.4,10.8,0.8l0.2,0.5l0.3,1c3.6,10.8,7.7,22.5,11.8,33.2
					c10.1,27.3,21.7,54.7,34.2,81c1,2.2,4.7,9.6,5.7,11.9l1,2l0.5,1c2.7,5.3,3,11.8,1,17.3c-10.7,22.9-24.2,44.3-36,66.6
					c-5.5,10.4-10.9,20.9-16.3,31.3c-0.3,0.5-0.8,0.9-1.3,1.1l-27.3,10.1l-6.8,2.5c-6.5,2.4-5.6,10.5-4.4,16.1l0,0.2v0l0,0.2
					l0.8,2.8c0.9,2.8,2.3,5.3,3.9,7.7c2.1,2.7,4.4,6,7.9,6.5l0.2,0l0,0c0.1,0,0.6,0,1,0.1c0.4,0,0.9,0,1.4,0
					c4.8-0.1,9.7-0.7,14.5-1.4c8.2-1.3,16.2-3.4,24.5-6.8c1.8-0.8,3.5-1.4,5.3-2.2l-0.4,0.7l1.1-1c-0.2,0.1-0.5,0.2-0.7,0.3l3.5-7.1
					l2-1.2c-0.8,0-1.6,0.5-2,1.2l7.7-15.5c7-14.3,20.3-39.5,27.7-53.9c7.4-13.9,21.4-39.1,29-53.2l4.1-7.6c1.2-2.1,2.2-4.5,2.3-7
					c0.2-2.1-0.6-5.9-0.9-8c-5.5-37.3-7.2-75.1-4.9-112.8c0.1-1.1,0.6-2.1,1.4-2.7c-0.2,0.2-0.4,0.4-0.6,0.6c0,0,2.9-1.4,2.9-1.4
					c-0.8,0-1.6,0.3-2.3,0.8c8.4-8.7,21-25.6,28.6-38.5c6.9-11.7,13-24.2,17.6-37.1c2.5-6.3,4.4-12.8,6-19.4
					c-0.1,0.3-0.1,0.6-0.1,0.9c0.1-0.4,0.2-0.8,0.3-1.3l1-1.7c-0.4,0.3-0.7,0.8-0.9,1.3c1.6-7.7,3.3-15.5,4-23.3
					c1.9-18.2,0.8-36.7-2.8-54.6c-1.2-6-2.7-12.1-4.3-18c0.3,0.9,1.2,1.6,2.1,1.5l-2.1-1.5c0,0,0,0,0,0l-0.1-0.7
					c0,0.2,0,0.4,0.1,0.6l-2.1-6.9c-1.3-4.2-2.3-7.1-3.6-10.7c-0.1-0.4,0.1-0.8,0.5-0.9c0.3-0.1,0.6,0,0.8,0.3
					c0.7,1.1,1.5,2.3,2.1,3.4l0.1,0.3l0-0.2c0,0,0-0.1-0.1-0.1l0-0.1c1.3,2.2,2.5,4.4,3.5,6.6c1,2,2.3,4.7,3.3,6.8l0,0
					c0,0,0.1,0.1,0.1,0.1c0,0,0,0,0,0c0,0,0,0,0,0l0.1,0.7c0-0.2,0-0.4-0.1-0.7c0,0.1,0.1,0.1,0.1,0.1c0,0,0,0.1,0,0.1
					c0.8,1.8,1.5,3.7,2.2,5.5c1.1,2.8,2.2,6.2,3.2,9C873.5,405.3,875.1,425.9,873,446.1z"/>
				<polygon points="153.3,888.5 153.6,888.4 153,888.8 				"/>
				<path d="M185.5,864.7l-1.5,0.5c0,0,0,0,0,0C184.4,864.8,184.9,864.7,185.5,864.7L185.5,864.7z"/>
				<path d="M185.5,869.8l1.5-0.5l-0.1,0.1C186.5,869.6,186,869.8,185.5,869.8z"/>
				<path d="M312.5,611.5c0.1,1,0.3,2.1,0.5,3.2c-1,0.3-2,0.7-3.1,1L312.5,611.5z"/>
				<path d="M333.1,703.1c0,0,1,2.5,1,2.5c-0.2-0.2-0.4-0.5-0.6-0.8c0,0,0,0,0,0c0,0,0-0.1-0.1-0.1
					C333.2,704.2,333.1,703.7,333.1,703.1z"/>
				<path d="M338.5,713.4c0,0.3,0,0.7,0.1,1C338.6,714.1,338.5,713.7,338.5,713.4L338.5,713.4z"/>
				<path d="M339,715.1C339,715.1,339,715.2,339,715.1C339,715.2,339,715.1,339,715.1L339,715.1z"/>
				<path d="M345,711.7l-2.9-1.7C343.4,710,344.4,710.7,345,711.7z"/>
				<path d="M344.5,715.9l1-2.4C345.5,714.3,345.2,715.2,344.5,715.9z"/>
				<path d="M345,711.8c0.3,0.5,0.4,1.1,0.4,1.6L345,711.8z"/>
				<path d="M348.4,782.8c0-0.1,0-0.2,0-0.2l0,0l0,0L348.4,782.8z"/>
				<path d="M348.4,782.3c0,0.1,0,0.2,0,0.2l0,0L348.4,782.3z"/>
				<path d="M352.9,737.8c-0.2-0.3-0.4-0.7-0.7-1l0.1-1.2L352.9,737.8z"/>
				<path d="M353.9,785.1l0.9-2v0.1c0,0,0,0,0,0.1C354.7,783.9,354.5,784.6,353.9,785.1z"/>
				<path d="M354.8,783L354.8,783l-3.1-3.5c0.3,0,0.4,0,0.8,0.1C354.1,780.1,354.9,781.6,354.8,783z"/>
				<polygon points="407.6,843.6 407.5,843.6 407.5,843.6 				"/>
				<path d="M411.6,848.9l1.3-2.6c0,0.9-0.4,1.9-1.2,2.5C411.7,848.8,411.6,848.9,411.6,848.9L411.6,848.9c-0.1,0.1-0.1,0.1-0.2,0.2
					c0,0-0.1,0.1-0.2,0.1c-1.2,0.8-3.1,0.5-4-0.5L411.6,848.9z"/>
				<path d="M462.2,738.6C462.2,738.6,462.3,738.7,462.2,738.6H462H462.2z"/>
				<path d="M567.3,729l1.3-0.9c-0.2,0.2-0.4,0.4-0.6,0.5c-0.1,0.1-0.2,0.2-0.3,0.2c0,0,0,0,0,0C567.5,728.9,567.4,729,567.3,729z"
					/>
				<path d="M584.9,399.4c0-1.2,0.5-2.4,1.4-3.3L584.9,399.4z"/>
				<path d="M586.3,396c0.9-1,2.2-1.6,3.6-1.6L586.3,396z"/>
				<path d="M593.5,403C593.6,403,593.6,403,593.5,403L593.5,403L593.5,403z"/>
				<path d="M601.5,380.2C601.6,380.2,601.6,380.2,601.5,380.2l-1.4,3.5c0-0.5,0.1-1,0.3-1.7C600.7,381.4,601.1,380.7,601.5,380.2z"
					/>
				<polygon points="601.6,380.1 601.7,380.1 601.7,380.1 				"/>
				<path d="M601.8,380c1.1-0.9,2-1.3,3.4-1.4l-3.5,1.5C601.7,380.1,601.7,380,601.8,380z"/>
				<path d="M608.9,387.3C608.9,387.3,608.9,387.3,608.9,387.3L608.9,387.3L608.9,387.3z"/>
				<path d="M694.3,575.9L694.3,575.9C694.3,575.9,694.3,575.9,694.3,575.9L694.3,575.9z"/>
				<path d="M700.3,580l0.7-1C700.8,579.4,700.5,579.8,700.3,580z"/>
				<path d="M701,578.9l0.3-1.5C701.4,577.9,701.2,578.4,701,578.9z"/>
				<path d="M712.2,551.8c-0.3,0.9-1.3,3.5-2,5.2c-0.6-1.7-1.1-3.4-1.7-5.2C709,553.1,711.4,553.8,712.2,551.8z"/>
				<path d="M712.6,296.5L712.6,296.5L712.6,296.5l-3.9,1.6l0,0l0.1-0.1h0c0-0.1,0.1-0.1,0.2-0.2c0.1-0.1,0.1-0.1,0.2-0.2h0
					c0.1,0,0.1-0.1,0.2-0.1c0,0,0,0,0,0c0,0,0,0,0,0c0,0,0.1-0.1,0.1-0.1c0,0,0,0,0,0c0,0,0,0,0,0c0,0,0,0,0.1,0
					c0.1-0.1,0.3-0.2,0.5-0.3c0,0,0,0,0,0l0.4-0.2l0.2-0.1l0,0c0,0,0,0,0,0l0,0c0,0,0.1,0,0.1,0c0.1,0,0.1,0,0.2-0.1
					c0.2-0.1,0.3-0.1,0.5-0.1c0,0,0,0,0,0c0.2,0,0.3-0.1,0.5-0.1C712.2,296.5,712.4,296.4,712.6,296.5z"/>
				<path d="M714,307.6C714,307.6,714,307.6,714,307.6c-0.6,0.1-1,0.2-1.4,0.2l0.1,0h0l1.8-0.3C714.4,307.5,714.2,307.6,714,307.6z"
					/>
				<polygon points="714.8,307.4 714.8,307.4 714.8,307.3 				"/>
				<path d="M714.4,792.3l0.9-0.3l-1.3,1.1C714.1,792.9,714.2,792.6,714.4,792.3z"/>
				<path d="M716.6,306.1L716.6,306.1L716.6,306.1c-0.3,0.3-0.6,0.6-0.9,0.8c-0.1,0-0.2,0.1-0.3,0.2c-0.1,0-0.1,0.1-0.2,0.1
					c0,0-0.1,0-0.1,0c-0.1,0-0.2,0.1-0.2,0.1L716.6,306.1z"/>
				<path d="M717.8,305.8l1.8-0.3l-0.2,0.1C718.9,305.7,718.4,305.8,717.8,305.8z"/>
				<path d="M719.7,305.5l3.8-5.2c0,2.2-1.5,4.2-3.4,5c-0.1,0-0.1,0-0.2,0.1C719.7,305.5,719.7,305.5,719.7,305.5z"/>
				<path d="M738.1,832.1c0.2-0.1,0.5-0.2,0.7-0.3l-1.1,1L738.1,832.1z"/>
				<path d="M743.6,823.8l-2,1.2C742,824.2,742.7,823.7,743.6,823.8z"/>
				<path d="M743.6,828.2l2-1.2l0,0.1C745.1,827.8,744.3,828.2,743.6,828.2z"/>
				<path d="M775.5,291.2c0.1,0,0.1,0,0.2,0l-0.8-0.1l0.3,0C775.3,291.2,775.4,291.2,775.5,291.2z"/>
				<path d="M810.4,563.6c0,0-2.9,1.4-2.9,1.4c0.2-0.2,0.4-0.4,0.6-0.6l0,0C808.7,563.9,809.5,563.6,810.4,563.6z"/>
				<path d="M810.4,571l3.7-3.5c0,0.5-0.1,0.9-0.1,1.4c-0.2,0.2-0.4,0.4-0.6,0.6l-0.2,0.2c0,0,0.1-0.1,0.1-0.1
					C813.3,569.6,810.4,571,810.4,571z"/>
				<path d="M855.2,357.8l0,0.2l-0.1-0.3C855.1,357.7,855.1,357.8,855.2,357.8z"/>
				<path d="M857.4,371.9l0.1,0.7c0,0,0-0.1,0-0.1l0,0C857.4,372.3,857.4,372.1,857.4,371.9z"/>
				<path d="M857.5,372.6l2.1,1.5C858.7,374.2,857.8,373.5,857.5,372.6z"/>
				<path d="M860.3,469.2c0.1-0.2,0.1-0.4,0.2-0.7c0,0.1,0,0.3-0.1,0.4L860.3,469.2z"/>
				<path d="M867.5,473.3l1.1-2C868.4,472.1,868,472.8,867.5,473.3z"/>
				<path d="M868.8,470.3c0,0.3,0,0.6-0.1,0.9L868.8,470.3z"/>
			</g>
			<g>
				<g>
					<g>
						<path class="st7" d="M240.9,723.2c-0.2,3.7-2.6,14.7-3,17.2c-3.2,19.6-28,86.4-17.1,102.2c7.1,10.3,21.9,13.5,34.9,9.3
							c14.3-4.7,31.8-38.5,43.1-52.8c2.4-3,19.2-21,27.1-24.6c3.6-1.6,10.9-6.8,15-8.5c0.5-4.5,0.8-8.7,1.2-13
							c-30.3-12.1-60.1-24.9-91.2-35.3C247.6,719.6,244.3,721.1,240.9,723.2z"/>
					</g>
				</g>
				<g>
					<g>
						<g>
							<path d="M237.9,740.4c-1.2,7.7-3.3,15.2-5.2,22.7c-3.9,15-7.9,30-10.8,45.2c-1.6,9.4-3.3,18.9-1.7,28.3c0,0,0.3,1.3,0.3,1.3
								l0.2,0.6c0.3,1,0.8,2,1.3,2.9c6.6,9.6,19.9,12.2,30.7,9.4c16.2-3.2,34.5-42.1,46.4-55c6.7-7.2,13.5-14.2,21.5-20.1
								c3.2-2.4,6.8-3.7,10.2-5.9c3.3-2,6.8-4.1,10.3-5.7c15.4-7.5,28.9-19.3,38.3-33.6c9.5-14.5,14.7-31.8,14.2-49.2
								c3.1,33.6-17.1,66.3-45.8,83c-1.9,1-6,3.3-7.8,4.1c-5,2.7-9.8,6.2-15,8.7c-4,2.5-7.4,5.7-10.9,9
								c-5.4,5.3-11.1,10.6-15.6,16.7c-9,12.6-16.7,26.3-26.7,38.3c-4.8,5.7-10.5,11.8-18.1,13.5c-12.2,3-27.2-0.1-34.5-11.2
								c-0.8-1.3-1.5-3-1.8-4.5c-2.2-10.2,0.1-21,2-31C224,784.9,232.5,763.1,237.9,740.4L237.9,740.4z"/>
						</g>
					</g>
					<g>
						<g>
							<path d="M392.6,672.8c-6.7-22.5-16.6-39.4-32.8-56.4C380.1,626.9,393.6,650.1,392.6,672.8L392.6,672.8z"/>
						</g>
					</g>
				</g>
				<g>
					<g>
						<path d="M241.4,725.3c-0.2,3.3-2.3,13.3-2.7,15.6c-2.9,17.8-25.4,78.2-15.4,92.6c6.5,9.3,19.9,12.2,31.6,8.4
							c12.9-4.2,28.8-34.8,39-47.8c2.1-2.7,17.4-19,24.5-22.3c3.3-1.5,9.9-6.2,13.5-7.7c0.5-4.1,0.7-7.8,1.1-11.8
							c-27.5-11-54.4-22.6-82.5-31.9C247.4,722,244.5,723.4,241.4,725.3z"/>
					</g>
				</g>
				<g>
					<g>
						<path class="st20" d="M289.2,787.1c-1.7,2.2-3.4,4.5-5.2,7c0,0-9.3,12.9-16.5,25.2c-2.8,4.7-5.1,9.1-7.1,13.3
							c-9,18.2-12.3,30.3-20.4,32.5c-4.6,1.2-9.1,0.5-9.1,0.5s-5.2-0.9-9.3-4.2c-6.1-4.9-6.4-18.1-4.5-32.6
							c2.2-17.5,7.5-37,9.4-46.5c0.5-2.2,1.6-9.2,1.8-11.9c2-1.8,4.2-2.8,6.3-4.2C253.3,771.7,270.6,780.9,289.2,787.1z"/>
					</g>
					<g>
						<path class="st21" d="M289.2,787.1c-1.7,2.2-3.4,4.5-5.2,7c0,0-9.3,12.9-16.5,25.2c-2.8,4.7-5.1,9.1-7.1,13.3
							c-2.8,0.9-5.6,1.8-8.4,2.6c-6.8,2-13.5,3.9-19.9,5.6c-3.9-3.7-8.7-7.6-14.2-11.5c-0.3-0.2-0.6-0.4-0.8-0.6
							c2.2-17.5,7.5-37,9.4-46.5c0.5-2.2,1.6-9.2,1.8-11.9c2-1.8,4.2-2.8,6.3-4.2C253.3,771.7,270.6,780.9,289.2,787.1z"/>
					</g>
				</g>
				<g>
					<path class="st5" d="M233.8,866.4c-8.1,1.3-15.6-4.5-17.8-12.1c-2.1-7.2-1.9-14.7-0.5-21.9c1.1-4.7,3-9.3,6-13.1
						c-0.4,7.1-0.8,13.5-0.4,20.3c0.1,2,0.2,4.8,0.4,6.7C222.1,855.7,224.9,862.2,233.8,866.4L233.8,866.4z"/>
				</g>
				<g>
					<g>
						<g>
							<path d="M267.5,819.2c-6,11.6-10.4,23.6-15.9,35.5c-2.2,4.5-5.1,9.7-10.1,11.7c-6.8,2.4-14.4,1.2-20.3-2.9
								c-14.2-9.8-3.7-48.2-0.1-62.6c1.7-6.3,3.5-12.5,5.2-18.7c-0.9,6.4-2.2,12.8-3.3,19.1c-2,12.5-10.8,51.2,0.5,58.9
								c4.2,3,9.6,4.1,14.7,3.2c5.4-0.7,8.1-5.7,10.7-10.2c1.5-2.8,2.9-5.7,4.4-8.6C257.5,836,262.1,827.3,267.5,819.2L267.5,819.2z
								"/>
						</g>
					</g>
					<g>
						<g>
							<path d="M231.6,844.7c-0.8-14.5,2.8-29.3,10.1-41.8c-1.4,6.1-3.7,14.7-5.1,20.9C235.1,830,233.2,838.6,231.6,844.7
								L231.6,844.7z"/>
						</g>
					</g>
				</g>
				<g>
					<path class="st8" d="M330,607.3c-3.8-4.5-10.8-11.6-21.3-14.7c-1.8-0.5-4-1.2-7-1.4c-10.1-0.6-23.1,9.8-32,14.9
						c-19.4,11.2-18.1,10.5-20.3,13.3c-14.7,18.4-1.9,58.8,1.6,69.1"/>
					<path d="M247.6,689.6c-6.6-19.3-15.4-54.5-1-72.4l0.4-0.5c2.2-2.8,2.8-3.2,20.9-13.6c2-1.1,4.2-2.5,6.5-4
						c8.7-5.6,18.6-11.9,27.5-11.4c3.4,0.2,6.1,1,7.8,1.5c8.7,2.6,16.4,7.9,23,15.8l-5.4,4.5c-5.7-6.8-12.3-11.4-19.6-13.6
						c-1.6-0.5-3.6-1.1-6.2-1.3c-6.7-0.4-15.9,5.5-23.3,10.3c-2.4,1.5-4.7,3-6.8,4.2c-17.5,10-17.6,10.2-18.9,11.9l-0.5,0.6
						c-13.1,16.4-1.6,54.5,2.2,65.8L247.6,689.6z"/>
				</g>
				<g>
					<path class="st8" d="M355.8,748.7c-2.1-5.5-4-11.1-5.8-16.7c1.9,4.9,3.9,9.8,6.1,14.6C356,747.3,355.9,748,355.8,748.7z"/>
				</g>
				<g>
					<path class="st10" d="M379.6,732.4c-6.8,9.8-14.7,17.6-18.3,20.6c-11,9.1-16.6,11.2-26.5,15.2c-7.7,3.1-13.1,2.5-18.6,8.9
						c-1.6,2.3-3.9,3.4-6.1,4.5c-1.1,0.6-2.2,1.1-3.2,1.9c-3.9,2.8-6.5,5.4-7.8,6.6c-4,3.7-13.7,12.7-27.1,25.2
						c-17.5,16.3-44.3,18.6-63.9,4.5c-3.9-2.8-7.3-6.1-10.3-9.9c-4.1-5.4-6.7-11.1-8.2-16.4c-3.1-11.1-0.5-23,6.9-31.8
						c10.4-12.3,26.6-32,32.5-41c1.9-2.9,3.2-5.6,3.4-5.9c2.8-5.7,4.4-11.6,5.9-19.2c1.7-8.5,3.6-18.2,7.2-27.1
						c0.6-1.4,1.2-3,1.9-4.6c0.9-2.1,1.9-4.3,3-6.5c1.3-2.7,2.8-5.4,4.3-7.7c8.7-13.5,19.1-23.7,31.8-31.7c1.5-0.9,3.1-1.8,4.7-2.6
						c6.8-3.3,15.4-6.6,25.7-8.7l0.3-0.1c19.3-3.8,39.1,3.5,53,19.7c10.6,12.4,18.4,27.7,22.5,46.7
						C396.8,692.1,388.2,719.9,379.6,732.4z"/>
				</g>
				<g>
					<path class="st8" d="M378.6,733.7c-3.2,5.6-14.4,17-17.6,19.6c-9.9,7.9-16.7,11.2-26.3,14.9c-7.4,2.8-27.8,13.9-32,15.8
						c4.4-5.4,9.9-11.2,16.7-16.6c12.6-9.9,18.6-9.7,26.1-20.4c7.2-10.2,9.6-21.4,10.3-24.7c1.6-8,1.6-15.1,1.3-20.1
						c3,3.2,6.1,6.8,9.1,11C371.8,720.5,375.8,727.6,378.6,733.7z"/>
				</g>
				<g>
					<path class="st5" d="M360.2,726.1c-1.3,10.7-6.8,17.4-17.1,29.9c-10.2,12.4-18.4,17.1-20.6,18c-0.3,0.1-2.2,0.9-4.4,2.2
						c-2.2,1.3-3.6,2.6-4,3c-3.9,3.4-12.1,8.7-15.1,10.8c-11.2,7.8-17.7,16.5-27.1,25.2c-17.5,16.3-44.3,18.6-63.9,4.5
						c-3.9-2.8-7.3-6.1-10.3-9.9c-4.1-5.4-6.7-11.1-8.2-16.4c-3.1-11.1-0.5-23,6.9-31.8c10.4-12.3,26.6-32,32.5-41
						c1.9-2.9,3.2-5.6,3.4-5.9c2.8-5.7,4.4-11.6,5.9-19.2c1.7-8.5,3.6-18.2,7.2-27.1c0.6-1.4,1.2-3,1.9-4.6c0.3-0.8,0.7-1.6,1.1-2.4
						c1.5-3.3,4.7-5.4,8.5-5.7l0.1,0c5.4-0.4,10.6,1.5,13.8,3.7c9.8,6.7,12.5,24.4,7.7,45.7c-0.9,3.9,3.5,6.8,6.7,4.6
						c12.2-8.2,32.7-18.9,52.2-14.6c4.2,0.9,12.5,2.7,18,9.6C362,712.2,360.6,722.3,360.2,726.1z"/>
				</g>
				<g>
					<path class="st10" d="M240.3,696.1c3.6-32.1,17.7-58.9,40.7-74.4c7.7-5.2,16.1-8.1,24.9-10.2c-13.9,6.9-26.8,15.3-37.4,27.7
						C255,655.1,246.5,674.5,240.3,696.1C240.4,696.1,240.3,696.1,240.3,696.1z"/>
				</g>
				<g>
					<path class="st7" d="M248.3,781.1c-1.5,2-17.2,28.5-19.4,25.3c-2.1-3.2,6.6-18,8.7-22.4s7.7-13.8,10-16.6
						c3.5-4.2,12.8-12.4,15.9-10C266.7,760,249.7,779.3,248.3,781.1z"/>
				</g>
				<g>
					<path d="M231.5,809.2c-3,4.6-9.5,5.5-15.8,3.2c0,0-0.1,0-0.1,0c-2.1-1.1-4.3-1.9-6.2-3.3c-8.9-6.4-10.8-14.2-6.5-22
						c0.1-0.3,0.4-0.5,0.5-0.7c1.5-2.3,5.7-3.3,8.4-2.3c9.5,3.4,19,8.2,21.5,16.5C234.6,804.1,233.4,806.4,231.5,809.2z"/>
				</g>
				<g>
					<path d="M197.8,809.8c-9-12.8-13-29.9-6.4-44.7c3.1-7.3,7.8-13.6,12.6-19.8c4.7-6,9.6-12,14.6-17.7
						c7.3-8.1,12.5-17.5,14.8-28.1c0.7-3.1,1.7-7.8,2.4-11c3.2-15.1,9-30.2,18-42.8c1.5-2,5-6.3,7.4-8.9
						c7.7-8.5,17.3-15.1,27.4-20.4c-8.8,6.8-17.3,14.3-24,23.2c-2.1,2.8-4.2,5.9-6.1,8.8c-6.9,11.1-12.6,27.2-15.2,41.6
						c-0.7,3.4-1.4,7.9-2.2,11.3c-1.7,7.7-4.7,15.6-9.3,22.1c-4.3,6.5-10,11.9-15,17.7l-7.4,8.5c-6.1,7.1-11.9,14-15.2,22.6
						C189.6,784.6,192.6,798.2,197.8,809.8L197.8,809.8z"/>
				</g>
				<g>
					<g>
						<path class="st6" d="M298.5,725.2c1.2-2.4,8.9-11.9,17.7-10.8c0.4,0.1,13.1,0.3,16.5,6.4c4.1,7.2,6.4,19.3-1,27.2
							c-0.9,0.9-1.2,1.7-2,2.4c-5.3,4.3-11.4,5.9-17.3,4.7c-6.7-1.4-12.5-6-14.9-12.4c-0.1-0.3-0.3-0.7-0.4-1.1
							C294.6,733.7,297.7,726.8,298.5,725.2z"/>
					</g>
					<g>
						<path d="M297.8,726c4.1-8.3,9.1-12.2,18.3-13.7c3.7-0.1,7.3,0.5,10.9,1.7c3.4,1.1,7,3.4,8.7,6.9c3.8,7.6,4.3,17,0.1,24.6
							c-2.1,3.5-5.1,5.8-8.3,8.1c-3.2,2.1-6.9,3-10.6,3.8c5-2.6,9.4-5.2,12.7-9.6c3.5-3.9,4.6-8.7,4.4-13.8
							c-0.2-4.2-1.2-8.3-3.3-11.8c-0.3-0.5-0.9-1.1-1.3-1.5c-3.4-2.7-8.4-3.8-12.7-4.4c0,0-0.3,0-0.3,0c0,0,0,0,0.1,0
							c0,0-0.1,0-0.1,0c-3.7,0.3-7.4,0.8-10.5,2.6C302.9,720.6,300.5,723.4,297.8,726L297.8,726z"/>
					</g>
					<g>
						<path d="M329.3,738c-2.9,7.5-10.4,14.2-19.6,11c-8.1-2.8-8.8-10.8-8-17.6c0.1-0.9,0.5-2.3,0.9-3.2c1.3-3,3.4-6.5,6.1-8.3
							c4.1-2.9,8.1-4.9,13.4-2.7C330.8,720.7,332.2,730.4,329.3,738z"/>
					</g>
					<g>
						<path class="st6" d="M314,728.4c-0.9,4-4.2,6.4-8.5,5.6c-2.1-0.4-3.1-1.7-4.3-3.2c0.3-1.1,0.5-2.2,1-3.2
							c1.4-3.3,3.4-6,6.1-8.5c0.2,0,0.4,0,0.6,0.1C313.1,720.9,314.9,724.5,314,728.4z"/>
					</g>
				</g>
				<g>
					<g>
						<path class="st5" d="M254.3,713c3.3-1.4,5.8-4,7.2-7.3c2.8-6.7,4.5-13,3.5-21.4c-0.1-0.5,0.2-10.5-7.8-10.4
							c-8.9,0-15.9,12.4-16.9,19.3c-0.5,3.4-0.9,8-0.4,12.5c0.5,5.1,5.7,9.2,11,8.3c0,0,0.1,0,0.1,0
							C252.2,713.8,253.3,713.5,254.3,713z"/>
					</g>
					<g>
						<path d="M260.3,708.4c2.7-7.4,4.7-15.2,3.5-23.1c-0.2-4.7-1.5-10.5-7.4-9.8c-4.6,0.6-8.1,4.6-10.7,8.3
							c-4.7,6.9-6.5,15.3-5.6,23.6c-2-6.6-1.6-13.9,1-20.3c2.8-6.7,8.2-14.5,16.3-14.6c6.2,0,8.9,6,8.8,11.4c0,0.3,0,0.9,0.1,1.2
							C267.1,693.3,264.4,701.4,260.3,708.4L260.3,708.4z"/>
					</g>
					<g>
						<path d="M252.5,688.7c-2.7,4.3-8.6,14.2-4.6,21c1,1.8,2.2,2.8,3.5,3.2c4.5,1.6,9.4-4.5,10.1-5.4c2.7-3.3,3.3-6.6,4.5-13.2
							c1-5.9,0.5-8.3-1-10c-0.3-0.3-1.1-1.2-2.3-1.6C258.5,681.5,253.6,687,252.5,688.7z"/>
					</g>
					<g>
						<path class="st6" d="M247.2,686.1c-1.4,2.1-4.3,7.1-2.3,10.5c2,3.4,5.3,1.1,6.8-1.1c1.5-2.2,4.3-7.3,2.3-10.8
							C252,681.3,248.6,684,247.2,686.1z"/>
					</g>
				</g>
				<g>
					<g>
						<path class="st10" d="M387.4,665.2c14-3.9,27.3,1.4,39.2,10.4c9.5,7.2,12.9,29.8,13.6,36.5c4.6,41.7-19.9,55.9-31.8,79.7
							c-9.5,18.9-8.5,23.9-19.8,29.8c-4.7,2.4-6-2.8-6.8-3.8c-12.9-16.5,7.4-54.3-2.2-80.8c-2.9-7.9-7.7-12.7-13-18.2
							c-1.3-3.2-2.5-4.8-2.6-8.7c-0.2-7.8,3.5-13.8,9.2-17.7C378,683.2,382.7,674.1,387.4,665.2z"/>
					</g>
					<g>
						<path class="st8" d="M408.5,791.8c-9.7,18.3-8,24.1-20,29.8c-5,2.4-4.3-3.2-6.8-3.8c-2.4-0.6-1.1-2.5-2.7-3.3
							c2-4,2.3-5.3,4.6-9.8c1.8-3.6,2.3-5.3,5.5-10.7c7.1-12.1,22.8-24.1,31.2-36.1c10.5-15.1,16.1-31.9,19.3-50.4
							c0.4-2.1,0-0.9,0.3-2.3c0.5,1.7,0.4,6.3,0.6,8C444.6,752,420.6,768.8,408.5,791.8z"/>
					</g>
					<g>
						<path class="st5" d="M386.9,793c-1.9,8.3-4.3,15-7.2,22.4c-9.2-20.6,9.8-50,0.1-78.5c-1.9-5.7-5.3-9.3-8.6-13.8
							c8.1,8.7,14.5,15.9,17.9,28.6C392.8,765.4,389.8,779.8,386.9,793z"/>
					</g>
					<g>
						<path d="M364.8,714.2c5.1,5,9.5,10.1,13.8,15.8c4.5,5.3,8.9,11.3,11.7,17.8c4.4,9.8,3.5,21.9,1.1,32.1c-1,3.4-2.2,6.8-4.3,9.7
							c2.8-9.9,2.5-20.4,1.3-30.5c-0.4-2.3-0.9-4.9-1.7-7.1c-1.6-3.9-3.5-7.6-5.6-11.2c-2.6-4.3-5.9-8.6-8.4-13.2
							C370.2,723,367.2,718.9,364.8,714.2L364.8,714.2z"/>
					</g>
					<g>
						<path d="M387.5,665.2c14-5.1,29.3,0.8,40.8,9.2c11.7,9.3,16.1,36.8,15.8,51.2c-0.2,15.9-6.6,31-15.8,43.6
							c-4.9,6.9-9.9,13.3-14,20.4c-2.3,4.1-4.5,8.8-6.5,13.1c-3.8,8.6-6.8,17.1-16,21.6c-5.7,3.5-10.5,1.5-13-4.3
							c-5.2-6.6-5.5-17.6-4.4-26.3c2.1-21.7,12.2-47.2-2.3-66.4c-2-2.7-4.3-5.2-6.6-7.8c-0.9-2.4-2.2-5-2.4-7.7
							c-0.4-5.2,1.1-10.6,4.5-14.6c1.6-2,3.6-3.6,5.7-4.9c-2,1.6-3.7,3.4-5.1,5.4c-2.7,4-3.7,9.1-2.9,13.8c0.4,2.4,1.7,4.4,2.7,6.6
							c0,0-0.3-0.5-0.3-0.5c4.9,4.7,10.1,9.6,13,16c8.7,19.2,2.2,40.7,0.6,60.6c-0.5,7.1-0.9,15.1,3.5,20.9c0.5,0.6,1,1.7,1.3,2.2
							c0.1,0.3,0.3,0.5,0.4,0.7c0.2,0.4,0.4,0.4,0.2,0.3c0,0-0.1-0.1-0.2,0c0,0-0.1,0-0.1,0c0,0,0,0,0,0c0.1-0.1,0.2,0,0.3-0.1
							c1.7-0.8,3.5-2,4.9-3.1c4.7-4,6.2-10.1,8.9-15.7c2.7-6.1,6-12.7,9.7-18.3c11.5-17.1,24.3-29.6,26.8-51.1
							c1.3-9.6,0.6-19.5-1.2-28.9c-1.5-7.7-3.4-15.9-8.3-22.1c-0.9-1.2-2.2-2.1-3.4-3.1C413.8,667.8,400.7,662.1,387.5,665.2
							L387.5,665.2z"/>
					</g>
				</g>
				<g>
					<path d="M208.1,819.7c14.9,7.6,33.8,11.7,48.8,2.7c1-0.5,3.5-2.2,4.5-2.9c8.1-5.3,15.5-11.2,22.7-17.7
						c7.1-6.6,14.4-13.3,22.7-18.5c-7,6.9-13.3,14.1-20,21.3c-6.7,7.2-14.4,13.6-22.7,19c-4.2,2.8-8.8,5.4-13.7,6.7
						C235.7,834.3,219.6,829.1,208.1,819.7L208.1,819.7z"/>
				</g>
			</g>
		</g>
	</g>
</g>
</svg>
